<svg width="100" height="100" viewBox="0 0 100 100" fill="none" xmlns="http://www.w3.org/2000/svg">
<path fill-rule="evenodd" clip-rule="evenodd" d="M46.3299 0.0790977C50.0413 -0.168204 56.0951 0.184483 59.7291 0.856986C67.6072 2.31519 75.3893 5.90406 81.6884 10.9897C83.5536 12.4959 86.9056 15.7564 88.3358 17.4553C92.3504 22.2247 95.4464 27.7496 97.4751 33.7573C99.1282 38.6532 99.863 43.025 99.9839 48.6786C100.124 55.2132 99.3605 60.2704 97.3539 66.0818C94.0367 75.6882 87.5544 84.508 79.4153 90.4893C71.8184 96.0721 63.7962 99.0924 54.4725 99.8846C51.7945 100.112 46.0095 99.988 43.5181 99.6488C37.5379 98.834 32.8236 97.4025 27.7684 94.8636C20.5262 91.2267 14.3605 86.0005 9.5773 79.4507C4.49067 72.4852 1.43613 64.8826 0.19888 56.1005C0.0596641 55.1108 -0.00405309 53.0558 0.000199302 49.672C0.00704976 44.4772 0.1039 43.3329 0.842068 39.6538C2.42001 31.7908 6.12357 24.0349 11.2206 17.9167C15.666 12.581 21.7279 7.79115 27.5327 5.0293C33.6932 2.09823 39.6729 0.522666 46.3299 0.0790977ZM50.4281 3.45668C47.894 3.42802 45.2936 3.46918 44.6462 3.54761C41.0164 3.99016 37.2076 4.86323 34.3249 5.91495C29.1809 7.79153 24.5024 10.4083 20.5654 13.6096C18.7713 15.0688 15.0406 18.7927 13.7361 20.4254C8.24737 27.2964 5.17842 34.3716 3.81555 43.3007C3.35746 46.3019 3.32073 52.3837 3.74146 55.4506C5.06523 65.0984 8.55918 72.9442 14.8036 80.2993C22.0944 88.8868 32.4465 94.5334 43.8616 96.15C45.354 96.3613 49.4853 96.607 50.5089 96.544L53.2433 96.3992C60.7959 96.0302 68.8865 93.3026 75.6539 88.8459C83.8061 83.4771 90.3616 75.1625 93.8079 65.8124C95.7358 60.5818 96.5524 55.8004 96.5524 49.7697C96.5524 41.9792 95.0542 35.6021 91.6191 28.7802C84.7887 15.2163 72.3447 6.2288 57.0755 3.83047C55.4632 3.57725 54.0872 3.49817 50.4281 3.45668Z" fill="#009478"/>
<path fill-rule="evenodd" clip-rule="evenodd" d="M20.0731 22.5457C18.9976 22.7486 19.0544 21.735 18.9882 41.9333C18.9336 58.6642 18.9614 60.7928 19.2573 62.5001C19.7555 65.373 20.485 67.5876 21.7693 70.1251C25.9484 78.3823 33.5089 83.0761 44.5937 84.2963C46.8429 84.5438 52.5086 84.5463 54.9632 84.3009C60.5763 83.7392 65.5955 82.0926 69.7767 79.441C71.6575 78.2483 74.908 75.1264 76.2607 73.2139C78.9581 69.3996 80.4345 65.185 80.8471 60.1196C80.9453 58.9152 81.0277 50.1892 81.0303 40.7285L81.0349 23.5271L79.8804 22.414H71.0886C65.4837 22.414 62.101 22.4858 61.757 22.6117C60.6491 23.0179 60.7041 22.0545 60.6973 41.2069C60.6905 60.8782 60.7149 60.4626 59.403 63.0926C58.0869 65.7308 55.5883 67.582 52.4942 68.211C47.3669 69.2533 42.6193 67.1707 40.4545 62.9293C39.1538 60.3811 39.162 60.5191 39.162 41.0752C39.162 31.457 39.1066 23.449 39.0394 23.2794C38.7094 22.4505 38.2633 22.4126 29.1481 22.4398C24.3899 22.4542 20.3062 22.5016 20.0731 22.5457ZM52.151 28.7458C51.9915 28.9815 49.9702 32.0879 47.6592 35.6489C45.3484 39.2101 43.3216 42.2739 43.1556 42.4571C42.8697 42.7723 43 42.7903 45.576 42.7903H48.2986L48.1594 43.7899C47.4869 48.6172 47.0701 51.9302 47.0747 52.4072C47.0799 52.9575 47.0909 52.9644 47.3763 52.5975C47.5393 52.388 48.2798 51.274 49.0221 50.122C49.7641 48.9698 51.7977 45.842 53.5415 43.1711L56.7114 38.315L54.0395 38.2618C51.3899 38.2094 51.3687 38.2054 51.4773 37.7858C51.5373 37.5534 51.8111 35.6062 52.0859 33.459C52.3608 31.3119 52.6262 29.2767 52.6756 28.9363C52.7804 28.2154 52.5632 28.1365 52.151 28.7458Z" fill="#009478"/>
</svg>
