<svg width="1936" height="228" viewBox="0 0 1936 228" fill="none" xmlns="http://www.w3.org/2000/svg">
<g filter="url(#filter0_d_2089_599)">
<mask id="path-1-outside-1_2089_599" maskUnits="userSpaceOnUse" x="4" y="0.556641" width="849" height="218" fill="black">
<rect fill="white" x="4" y="0.556641" width="849" height="218"/>
<path d="M279.378 11.9165C289.273 7.74269 299.069 5.51859 314.452 3.95267C321.327 3.25248 330.616 2.62648 335.095 2.56154C343.751 2.43752 367.619 4.69243 375.952 6.42339C378.702 6.99468 382.301 7.71975 383.952 8.03469C385.602 8.34963 387.476 8.76662 388.117 8.96144C388.943 9.2134 388.576 11.9634 386.847 18.4404C383.716 30.1743 376.66 53.5704 376.074 54.1558C375.827 54.4034 370.973 53.4268 365.288 51.9854C347.159 47.3887 318.565 46.1597 308.452 49.5426C303.591 51.1676 298.596 56.1578 297.85 60.1305C295.931 70.3658 300.724 75.6305 324.985 89.9444C344.932 101.712 353.249 109.087 358.248 119.444C373.05 150.112 354.351 191.086 318.32 206.929C298.562 215.617 269.567 218.473 236.808 214.958C219.362 213.086 202.452 210.142 202.452 208.977C202.452 208.851 204.193 202.715 206.323 195.346C208.451 187.975 211.192 178.12 212.415 173.445C213.638 168.77 214.991 164.572 215.422 164.118C215.853 163.663 219.074 163.969 222.578 164.797C261.694 174.052 291.673 172.877 300.428 161.748C305.475 155.331 305.446 146.594 300.361 141.509C298.704 139.851 289.832 134.036 280.649 128.586C271.465 123.139 261.082 116.522 257.575 113.882C241.926 102.108 235.692 86.5929 238.469 66.3219C242.001 40.5167 256.137 21.7188 279.378 11.9165Z"/>
<path d="M176.706 7.53664L182.329 7.24074C190.46 6.81252 231.621 7.28078 232.148 7.80764C232.392 8.05275 231.683 11.3335 230.573 15.0987C229.46 18.8638 227.387 26.4444 225.961 31.9444C224.537 37.4444 222.724 44.1944 221.933 46.9444C219.829 54.2647 215.04 71.6817 212.449 81.4444C210.563 88.5426 205.701 106.239 201.455 121.444C200.917 123.37 199.12 129.895 197.46 135.944C186.789 174.837 174.894 192.322 150.952 204.306C133.911 212.835 117.177 216.446 94.7084 216.444C63.9174 216.44 40.9452 207.441 30.1303 191.149C24.5995 182.816 22.3515 174.647 22.3466 162.855C22.3456 160.66 22.3168 158.968 22.3773 157.28C22.664 149.307 24.9472 141.406 41.5985 80.9444C51.5736 44.7237 52.7772 38.9287 51.3612 33.9444C49.7397 28.2324 47.3886 25.3867 41.2982 21.7647C36.1005 18.6724 16.8456 12.4444 12.4862 12.4444C9.22646 12.4444 6.44326 10.6294 7.0956 8.92971C7.58925 7.6426 14.6483 7.44436 60.0585 7.44436C111.181 7.44436 112.452 7.49172 112.452 9.37746C112.452 10.9976 103.526 46.1275 96.5565 71.9444C93.3236 83.9185 82.6786 125.507 80.5126 134.622C75.7816 154.541 79.5565 166.32 91.8422 169.969C104.641 173.769 120.341 170.113 129.295 161.248C138.213 152.418 138.745 150.812 162.438 60.9444C165.048 51.0445 169.327 34.9776 171.945 25.2407L176.706 7.53664Z"/>
<path d="M643.667 11.9444C644.77 8.50978 645.446 7.85744 648.451 7.32668C650.376 6.98635 661.787 6.64846 673.808 6.57668C692.68 6.46242 695.588 6.64553 695.1 7.9175C694.789 8.72658 693.199 14.4644 691.566 20.6675C689.933 26.8696 685.467 42.9698 681.642 56.4444C670.238 96.6187 659.221 135.708 658.249 139.444C656.945 144.457 656.38 146.45 649.178 171.445C647.47 177.372 645.727 183.483 644.268 188.65C642.681 194.27 641.428 198.774 640.919 200.714C639.943 204.437 638.651 208.107 638.047 208.87C637.266 209.86 631.86 210.305 612.944 210.783C614.758 202.092 615.505 193.276 615.597 181.723C615.603 181.168 615.606 180.613 615.606 180.057C615.606 164.595 613.32 149.667 609.067 135.592C611.21 128.446 624.38 81.2379 625.968 74.9444C627.714 68.0294 642.091 16.8535 643.667 11.9444Z"/>
<path d="M414.904 43.4615C417.155 42.6983 419.298 42.0064 421.368 41.379C429.247 39.0679 437.405 37.4107 445.78 36.4688C450.645 35.9898 455.935 35.7129 462.106 35.5567C465.974 35.5567 469.807 35.7085 473.598 36.0069C472.216 40.9927 470.856 45.9141 469.744 49.9547C468.672 53.8453 467.83 56.9185 467.418 58.4444C466.455 62.0196 462.297 77.0948 458.182 91.9444C454.065 106.795 448.122 128.395 444.973 139.944C441.825 151.495 438.155 164.77 436.819 169.445C433.423 181.331 432.875 183.313 429.015 197.674C427.133 204.677 425.31 210.863 424.963 211.425C424.158 212.729 374.556 212.815 371.145 211.518C370.51 211.277 369.981 211.274 369.654 211.016C368.519 210.12 369.807 206.15 377.476 178.444C378.826 173.564 380.249 168.404 381.558 163.64C383.568 156.324 385.311 149.942 386.113 146.944C389.124 135.709 400.268 95.5914 410.419 59.4444C411.908 54.1436 413.455 48.6275 414.904 43.4615Z"/>
<path d="M500.937 40.8335C561.883 57.7959 606.606 113.704 606.606 180.057C605.994 192.964 605.067 202.351 603.277 211.008L574.951 211.639L568.739 186.792C565.322 173.126 557.914 143.388 552.277 120.707C546.64 98.0245 541.727 79.7994 541.359 80.2066C540.781 80.8448 534.046 104.213 529.835 120.194C529.352 122.027 528.662 124.599 528.019 126.973C527.649 128.339 527.294 129.639 527.002 130.694L521.421 150.944C519.148 159.194 516.411 169.095 515.335 172.945C513.055 181.117 510.438 190.735 507.447 201.944C506.273 206.345 504.919 210.347 504.438 210.839C503.956 211.331 492.748 211.957 479.529 212.229C458.228 212.668 455.427 212.545 454.889 211.14C454.311 209.639 458.645 193.17 474.67 135.944C477.16 127.054 479.455 118.833 480.843 113.835C481.602 111.103 482.089 109.333 482.189 108.944C482.475 107.845 486.249 94.1197 490.581 78.4444C494.08 65.776 498.269 50.5596 500.937 40.8335Z"/>
<path fill-rule="evenodd" clip-rule="evenodd" d="M757.951 7.94436L789.451 7.44436C809.754 7.12258 821.352 7.29934 822.08 7.94436C822.701 8.49465 823.964 15.4697 824.886 23.4444C826.553 37.8648 827.666 47.1207 829.457 61.4444C829.973 65.5694 830.871 72.9947 831.454 77.9444C833.988 99.4976 840.74 146.681 845.477 175.945C847.702 189.695 849.795 203.307 850.127 206.194L850.731 211.445H797.489L796.991 209.195C796.717 207.958 795.776 200.42 794.899 192.444C794.022 184.47 793 177.72 792.628 177.444C792.256 177.17 776.148 177.084 756.834 177.253L721.717 177.562L705.535 211.445H678.386C652.946 211.445 651.278 211.335 651.894 209.695C652.608 207.794 682.975 149.847 704.954 108.444C709.479 99.9195 716.012 87.5445 719.471 80.9444C722.93 74.3448 726.844 66.9644 728.169 64.5455C729.494 62.1256 734.582 52.4508 739.476 43.0455C744.37 33.6397 750.529 21.8946 753.163 16.9444L757.951 7.94436ZM766.694 87.4444C771.091 78.3697 775.519 69.0319 776.534 66.6945C777.549 64.3575 778.733 62.4444 779.165 62.4454C779.598 62.4454 781.446 76.7335 783.272 94.1954C785.099 111.658 786.945 128.074 787.375 130.676C787.623 132.178 787.767 133.6 787.789 134.589C787.806 135.313 787.758 135.805 787.637 135.926C786.975 136.587 743.451 136.612 743.451 135.951C743.451 135.488 746.412 129.31 766.694 87.4444Z"/>
<path d="M425.998 3.55859H535.998C580.998 3.55859 577.5 28.5566 588.088 60.0566C591.661 74.2653 596.234 92.5335 600.444 109.444C601.258 112.712 601.985 115.62 602.634 118.203C584.255 76.5054 548 44.5566 503.313 32.1504C492 29.0095 491.5 28.0566 462.106 26.5567C441.789 27.624 431.33 29.1973 417.798 33.1279C419.193 28.145 420.312 24.1392 420.922 21.9444C421.759 18.9341 422.627 15.9205 423.318 13.606C423.89 11.6915 424.553 9.69436 424.553 9.69436L425.998 3.55859Z"/>
<path d="M445.78 36.4688C437.405 37.4107 429.247 39.0679 421.368 41.379C429.876 38.8013 437.164 37.3174 445.78 36.4688C451.139 35.8662 456.586 35.5567 462.106 35.5567C455.935 35.7129 450.645 35.9898 445.78 36.4688Z"/>
</mask>
<path d="M279.378 11.9165C289.273 7.74269 299.069 5.51859 314.452 3.95267C321.327 3.25248 330.616 2.62648 335.095 2.56154C343.751 2.43752 367.619 4.69243 375.952 6.42339C378.702 6.99468 382.301 7.71975 383.952 8.03469C385.602 8.34963 387.476 8.76662 388.117 8.96144C388.943 9.2134 388.576 11.9634 386.847 18.4404C383.716 30.1743 376.66 53.5704 376.074 54.1558C375.827 54.4034 370.973 53.4268 365.288 51.9854C347.159 47.3887 318.565 46.1597 308.452 49.5426C303.591 51.1676 298.596 56.1578 297.85 60.1305C295.931 70.3658 300.724 75.6305 324.985 89.9444C344.932 101.712 353.249 109.087 358.248 119.444C373.05 150.112 354.351 191.086 318.32 206.929C298.562 215.617 269.567 218.473 236.808 214.958C219.362 213.086 202.452 210.142 202.452 208.977C202.452 208.851 204.193 202.715 206.323 195.346C208.451 187.975 211.192 178.12 212.415 173.445C213.638 168.77 214.991 164.572 215.422 164.118C215.853 163.663 219.074 163.969 222.578 164.797C261.694 174.052 291.673 172.877 300.428 161.748C305.475 155.331 305.446 146.594 300.361 141.509C298.704 139.851 289.832 134.036 280.649 128.586C271.465 123.139 261.082 116.522 257.575 113.882C241.926 102.108 235.692 86.5929 238.469 66.3219C242.001 40.5167 256.137 21.7188 279.378 11.9165Z" fill="url(#paint0_linear_2089_599)"/>
<path d="M176.706 7.53664L182.329 7.24074C190.46 6.81252 231.621 7.28078 232.148 7.80764C232.392 8.05275 231.683 11.3335 230.573 15.0987C229.46 18.8638 227.387 26.4444 225.961 31.9444C224.537 37.4444 222.724 44.1944 221.933 46.9444C219.829 54.2647 215.04 71.6817 212.449 81.4444C210.563 88.5426 205.701 106.239 201.455 121.444C200.917 123.37 199.12 129.895 197.46 135.944C186.789 174.837 174.894 192.322 150.952 204.306C133.911 212.835 117.177 216.446 94.7084 216.444C63.9174 216.44 40.9452 207.441 30.1303 191.149C24.5995 182.816 22.3515 174.647 22.3466 162.855C22.3456 160.66 22.3168 158.968 22.3773 157.28C22.664 149.307 24.9472 141.406 41.5985 80.9444C51.5736 44.7237 52.7772 38.9287 51.3612 33.9444C49.7397 28.2324 47.3886 25.3867 41.2982 21.7647C36.1005 18.6724 16.8456 12.4444 12.4862 12.4444C9.22646 12.4444 6.44326 10.6294 7.0956 8.92971C7.58925 7.6426 14.6483 7.44436 60.0585 7.44436C111.181 7.44436 112.452 7.49172 112.452 9.37746C112.452 10.9976 103.526 46.1275 96.5565 71.9444C93.3236 83.9185 82.6786 125.507 80.5126 134.622C75.7816 154.541 79.5565 166.32 91.8422 169.969C104.641 173.769 120.341 170.113 129.295 161.248C138.213 152.418 138.745 150.812 162.438 60.9444C165.048 51.0445 169.327 34.9776 171.945 25.2407L176.706 7.53664Z" fill="url(#paint1_linear_2089_599)"/>
<path d="M643.667 11.9444C644.77 8.50978 645.446 7.85744 648.451 7.32668C650.376 6.98635 661.787 6.64846 673.808 6.57668C692.68 6.46242 695.588 6.64553 695.1 7.9175C694.789 8.72658 693.199 14.4644 691.566 20.6675C689.933 26.8696 685.467 42.9698 681.642 56.4444C670.238 96.6187 659.221 135.708 658.249 139.444C656.945 144.457 656.38 146.45 649.178 171.445C647.47 177.372 645.727 183.483 644.268 188.65C642.681 194.27 641.428 198.774 640.919 200.714C639.943 204.437 638.651 208.107 638.047 208.87C637.266 209.86 631.86 210.305 612.944 210.783C614.758 202.092 615.505 193.276 615.597 181.723C615.603 181.168 615.606 180.613 615.606 180.057C615.606 164.595 613.32 149.667 609.067 135.592C611.21 128.446 624.38 81.2379 625.968 74.9444C627.714 68.0294 642.091 16.8535 643.667 11.9444Z" fill="url(#paint2_linear_2089_599)"/>
<path d="M414.904 43.4615C417.155 42.6983 419.298 42.0064 421.368 41.379C429.247 39.0679 437.405 37.4107 445.78 36.4688C450.645 35.9898 455.935 35.7129 462.106 35.5567C465.974 35.5567 469.807 35.7085 473.598 36.0069C472.216 40.9927 470.856 45.9141 469.744 49.9547C468.672 53.8453 467.83 56.9185 467.418 58.4444C466.455 62.0196 462.297 77.0948 458.182 91.9444C454.065 106.795 448.122 128.395 444.973 139.944C441.825 151.495 438.155 164.77 436.819 169.445C433.423 181.331 432.875 183.313 429.015 197.674C427.133 204.677 425.31 210.863 424.963 211.425C424.158 212.729 374.556 212.815 371.145 211.518C370.51 211.277 369.981 211.274 369.654 211.016C368.519 210.12 369.807 206.15 377.476 178.444C378.826 173.564 380.249 168.404 381.558 163.64C383.568 156.324 385.311 149.942 386.113 146.944C389.124 135.709 400.268 95.5914 410.419 59.4444C411.908 54.1436 413.455 48.6275 414.904 43.4615Z" fill="url(#paint3_linear_2089_599)"/>
<path d="M500.937 40.8335C561.883 57.7959 606.606 113.704 606.606 180.057C605.994 192.964 605.067 202.351 603.277 211.008L574.951 211.639L568.739 186.792C565.322 173.126 557.914 143.388 552.277 120.707C546.64 98.0245 541.727 79.7994 541.359 80.2066C540.781 80.8448 534.046 104.213 529.835 120.194C529.352 122.027 528.662 124.599 528.019 126.973C527.649 128.339 527.294 129.639 527.002 130.694L521.421 150.944C519.148 159.194 516.411 169.095 515.335 172.945C513.055 181.117 510.438 190.735 507.447 201.944C506.273 206.345 504.919 210.347 504.438 210.839C503.956 211.331 492.748 211.957 479.529 212.229C458.228 212.668 455.427 212.545 454.889 211.14C454.311 209.639 458.645 193.17 474.67 135.944C477.16 127.054 479.455 118.833 480.843 113.835C481.602 111.103 482.089 109.333 482.189 108.944C482.475 107.845 486.249 94.1197 490.581 78.4444C494.08 65.776 498.269 50.5596 500.937 40.8335Z" fill="url(#paint4_linear_2089_599)"/>
<path fill-rule="evenodd" clip-rule="evenodd" d="M757.951 7.94436L789.451 7.44436C809.754 7.12258 821.352 7.29934 822.08 7.94436C822.701 8.49465 823.964 15.4697 824.886 23.4444C826.553 37.8648 827.666 47.1207 829.457 61.4444C829.973 65.5694 830.871 72.9947 831.454 77.9444C833.988 99.4976 840.74 146.681 845.477 175.945C847.702 189.695 849.795 203.307 850.127 206.194L850.731 211.445H797.489L796.991 209.195C796.717 207.958 795.776 200.42 794.899 192.444C794.022 184.47 793 177.72 792.628 177.444C792.256 177.17 776.148 177.084 756.834 177.253L721.717 177.562L705.535 211.445H678.386C652.946 211.445 651.278 211.335 651.894 209.695C652.608 207.794 682.975 149.847 704.954 108.444C709.479 99.9195 716.012 87.5445 719.471 80.9444C722.93 74.3448 726.844 66.9644 728.169 64.5455C729.494 62.1256 734.582 52.4508 739.476 43.0455C744.37 33.6397 750.529 21.8946 753.163 16.9444L757.951 7.94436ZM766.694 87.4444C771.091 78.3697 775.519 69.0319 776.534 66.6945C777.549 64.3575 778.733 62.4444 779.165 62.4454C779.598 62.4454 781.446 76.7335 783.272 94.1954C785.099 111.658 786.945 128.074 787.375 130.676C787.623 132.178 787.767 133.6 787.789 134.589C787.806 135.313 787.758 135.805 787.637 135.926C786.975 136.587 743.451 136.612 743.451 135.951C743.451 135.488 746.412 129.31 766.694 87.4444Z" fill="url(#paint5_linear_2089_599)"/>
<path d="M425.998 3.55859H535.998C580.998 3.55859 577.5 28.5566 588.088 60.0566C591.661 74.2653 596.234 92.5335 600.444 109.444C601.258 112.712 601.985 115.62 602.634 118.203C584.255 76.5054 548 44.5566 503.313 32.1504C492 29.0095 491.5 28.0566 462.106 26.5567C441.789 27.624 431.33 29.1973 417.798 33.1279C419.193 28.145 420.312 24.1392 420.922 21.9444C421.759 18.9341 422.627 15.9205 423.318 13.606C423.89 11.6915 424.553 9.69436 424.553 9.69436L425.998 3.55859Z" fill="url(#paint6_linear_2089_599)"/>
<path d="M445.78 36.4688C437.405 37.4107 429.247 39.0679 421.368 41.379C429.876 38.8013 437.164 37.3174 445.78 36.4688C451.139 35.8662 456.586 35.5567 462.106 35.5567C455.935 35.7129 450.645 35.9898 445.78 36.4688Z" fill="url(#paint7_linear_2089_599)"/>
<path d="M615.597 181.723L616.597 181.733L616.597 181.73L615.597 181.723ZM615.606 180.057L616.606 180.061L616.606 179.986L616.595 179.911L615.606 180.057ZM609.067 135.592L608.104 135.323L608.047 135.528L608.078 135.737L609.067 135.592ZM421.368 41.379L421.649 42.3386L421.649 42.3385L421.368 41.379ZM445.78 36.4688L445.682 35.4735L445.668 35.475L445.78 36.4688ZM615.602 181.103L616.602 181.11L616.602 181.107L615.602 181.103ZM425.401 7.44436L424.466 7.09145L423.617 9.34145L424.553 9.69436L425.488 10.0473L426.337 7.79726L425.401 7.44436ZM445.78 36.4688L445.668 35.475C437.236 36.4234 429.021 38.0922 421.087 40.4194L421.368 41.379L421.649 42.3385C429.473 40.0437 437.575 38.3979 445.892 37.4625L445.78 36.4688ZM462.106 35.5567L462.081 34.557C455.895 34.7136 450.58 34.9914 445.682 35.4736L445.78 36.4688L445.878 37.464C450.711 36.9881 455.975 36.7122 462.132 36.5563L462.106 35.5567ZM414.91 43.44L415.236 44.3852C417.352 43.6545 419.49 42.9718 421.649 42.3386L421.368 41.379L421.087 40.4194C418.897 41.0615 416.729 41.7538 414.584 42.4948L414.91 43.44ZM606.606 180.057H605.606C605.606 190.608 604.467 200.894 602.306 210.795L603.283 211.008L604.26 211.222C606.452 201.181 607.606 190.752 607.606 180.057H606.606ZM615.597 181.723L614.597 181.712C614.492 191.594 613.447 201.25 611.548 210.595L612.528 210.794L613.508 210.993C615.432 201.525 616.491 191.743 616.597 181.733L615.597 181.723ZM615.597 181.723L616.597 181.73L616.602 181.11L615.602 181.103L614.602 181.096L614.597 181.716L615.597 181.723ZM615.602 181.103L616.602 181.107L616.606 180.061L615.606 180.057L614.606 180.053L614.602 181.098L615.602 181.103ZM609.067 135.592L608.078 135.737L614.617 180.202L615.606 180.057L616.595 179.911L610.056 135.446L609.067 135.592ZM625.968 74.9444L625.005 74.676L608.104 135.323L609.067 135.592L610.03 135.86L626.932 75.2129L625.968 74.9444ZM314.452 3.95267L314.654 5.94239L314.654 5.94238L314.452 3.95267ZM279.378 11.9165L280.156 13.7593L280.156 13.7593L279.378 11.9165ZM335.095 2.56154L335.066 0.561748L335.066 0.561753L335.095 2.56154ZM375.952 6.42339L376.359 4.4652L376.359 4.46519L375.952 6.42339ZM383.952 8.03469L384.327 6.07016L384.327 6.07014L383.952 8.03469ZM388.117 8.96144L388.7 7.04833L388.698 7.04785L388.117 8.96144ZM386.847 18.4404L384.914 17.9246L384.914 17.9249L386.847 18.4404ZM376.074 54.1558L374.66 52.741L374.658 52.743L376.074 54.1558ZM365.288 51.9854L364.796 53.9241L364.796 53.9241L365.288 51.9854ZM308.452 49.5426L309.086 51.4393L309.086 51.4393L308.452 49.5426ZM297.85 60.1305L299.816 60.4992L299.816 60.4991L297.85 60.1305ZM324.985 89.9444L323.969 91.667L323.969 91.667L324.985 89.9444ZM358.248 119.444L356.446 120.314L356.446 120.314L358.248 119.444ZM318.32 206.929L317.515 205.098L317.515 205.098L318.32 206.929ZM236.808 214.958L236.595 216.946L236.595 216.946L236.808 214.958ZM206.323 195.346L208.244 195.901L208.244 195.9L206.323 195.346ZM212.415 173.445L214.35 173.951L214.35 173.95L212.415 173.445ZM215.422 164.118L216.873 165.495L216.874 165.493L215.422 164.118ZM222.578 164.797L223.039 162.851L223.039 162.851L222.578 164.797ZM300.428 161.748L298.856 160.511L298.856 160.511L300.428 161.748ZM300.361 141.509L298.947 142.923L298.947 142.923L300.361 141.509ZM280.649 128.586L281.67 126.866L281.67 126.866L280.649 128.586ZM257.575 113.882L256.372 115.481L256.372 115.481L257.575 113.882ZM238.469 66.3219L240.45 66.5933L240.45 66.5931L238.469 66.3219ZM182.329 7.24074L182.435 9.23798L182.435 9.23797L182.329 7.24074ZM176.706 7.53664L176.601 5.5394L175.152 5.61567L174.775 7.01723L176.706 7.53664ZM232.148 7.80764L233.565 6.39625L233.563 6.39342L232.148 7.80764ZM230.573 15.0987L232.491 15.6653L232.491 15.6646L230.573 15.0987ZM225.961 31.9444L224.025 31.4426L224.025 31.4431L225.961 31.9444ZM221.933 46.9444L220.011 46.3915L220.011 46.3919L221.933 46.9444ZM212.449 81.4444L214.382 81.9578L214.382 81.9576L212.449 81.4444ZM201.455 121.444L203.382 121.983L203.382 121.982L201.455 121.444ZM197.46 135.944L195.532 135.415L195.532 135.415L197.46 135.944ZM150.952 204.306L151.847 206.094L151.847 206.094L150.952 204.306ZM94.7084 216.444L94.7081 218.444L94.7081 218.444L94.7084 216.444ZM30.1303 191.149L28.4639 192.255L28.464 192.255L30.1303 191.149ZM22.3466 162.855L24.3466 162.854L24.3466 162.854L22.3466 162.855ZM22.3773 157.28L20.3786 157.208L20.3786 157.208L22.3773 157.28ZM41.5985 80.9444L43.5267 81.4755L43.5267 81.4754L41.5985 80.9444ZM51.3612 33.9444L49.4373 34.4906L49.4374 34.4909L51.3612 33.9444ZM41.2982 21.7647L40.2757 23.4835L40.2759 23.4836L41.2982 21.7647ZM7.0956 8.92971L8.9628 9.64633L8.96297 9.64591L7.0956 8.92971ZM96.5565 71.9444L98.4874 72.4657L98.4874 72.4657L96.5565 71.9444ZM80.5126 134.622L78.5668 134.159L78.5667 134.159L80.5126 134.622ZM91.8422 169.969L91.2727 171.886L91.273 171.886L91.8422 169.969ZM129.295 161.248L130.702 162.669L130.703 162.669L129.295 161.248ZM162.438 60.9444L164.372 61.4543L164.372 61.4542L162.438 60.9444ZM171.945 25.2407L173.877 25.7602L173.877 25.7602L171.945 25.2407ZM648.451 7.32668L648.799 9.29619L648.8 9.29613L648.451 7.32668ZM643.667 11.9444L641.763 11.3328L641.763 11.333L643.667 11.9444ZM673.808 6.57668L673.82 8.57664L673.82 8.57664L673.808 6.57668ZM695.1 7.9175L696.967 8.63516L696.968 8.63363L695.1 7.9175ZM691.566 20.6675L689.632 20.1583L689.632 20.1583L691.566 20.6675ZM681.642 56.4444L683.566 56.9906L683.566 56.9905L681.642 56.4444ZM658.249 139.444L660.185 139.948L660.185 139.948L658.249 139.444ZM649.178 171.445L651.1 171.998L651.1 171.998L649.178 171.445ZM644.268 188.65L646.193 189.193L646.193 189.193L644.268 188.65ZM640.919 200.714L638.985 200.206L638.985 200.206L640.919 200.714ZM638.047 208.87L636.479 207.629L636.477 207.631L638.047 208.87ZM612.944 210.783L610.986 210.375L610.47 212.847L612.994 212.783L612.944 210.783ZM615.597 181.723L613.597 181.702L613.597 181.707L615.597 181.723ZM609.067 135.592L607.151 135.017L606.978 135.594L607.153 136.17L609.067 135.592ZM625.968 74.9444L627.908 75.434L627.908 75.4339L625.968 74.9444ZM503.313 32.1504L502.778 34.0775L503.313 32.1504ZM424.553 9.69436L426.451 10.3242L426.479 10.2396L426.499 10.153L424.553 9.69436ZM423.318 13.606L421.402 13.0337L421.402 13.0339L423.318 13.606ZM420.922 21.9444L418.995 21.4086L418.995 21.4089L420.922 21.9444ZM417.798 33.1279L415.872 32.5889L414.903 36.0516L418.356 35.0486L417.798 33.1279ZM462.106 26.5567L462.208 24.5593L462.105 24.554L462.001 24.5594L462.106 26.5567ZM421.368 41.379L420.788 39.4649L420.788 39.4649L421.368 41.379ZM414.904 43.4615L414.262 41.5674L413.263 41.906L412.978 42.9216L414.904 43.4615ZM445.78 36.4688L445.976 38.4591L445.99 38.4578L446.003 38.4562L445.78 36.4688ZM473.598 36.0069L475.525 36.541L476.173 34.2033L473.755 34.013L473.598 36.0069ZM469.744 49.9547L467.815 49.4236L467.815 49.4237L469.744 49.9547ZM467.418 58.4444L465.487 57.9235L465.487 57.9238L467.418 58.4444ZM458.182 91.9444L460.109 92.4787L460.109 92.4786L458.182 91.9444ZM444.973 139.944L443.043 139.418L443.043 139.418L444.973 139.944ZM436.819 169.445L434.896 168.895L434.896 168.895L436.819 169.445ZM429.015 197.674L430.947 198.194L430.947 198.194L429.015 197.674ZM424.963 211.425L423.263 210.372L423.262 210.373L424.963 211.425ZM371.145 211.518L371.855 209.648L371.855 209.648L371.145 211.518ZM369.654 211.016L368.416 212.586L368.416 212.587L369.654 211.016ZM377.476 178.444L379.403 178.978L379.403 178.978L377.476 178.444ZM381.558 163.64L379.63 163.11L379.63 163.11L381.558 163.64ZM386.113 146.944L384.181 146.427L384.181 146.427L386.113 146.944ZM410.419 59.4444L408.494 58.9036L408.494 58.9036L410.419 59.4444ZM606.606 180.057L608.604 180.152L608.606 180.104V180.057H606.606ZM500.937 40.8335L501.473 38.9068L499.539 38.3685L499.008 40.3045L500.937 40.8335ZM603.277 211.008L603.321 213.008L604.913 212.973L605.235 211.413L603.277 211.008ZM574.951 211.639L573.011 212.124L573.399 213.674L574.996 213.638L574.951 211.639ZM568.739 186.792L570.68 186.307L570.68 186.307L568.739 186.792ZM552.277 120.707L550.336 121.189L550.336 121.189L552.277 120.707ZM541.359 80.2066L542.842 81.5487L542.843 81.5479L541.359 80.2066ZM529.835 120.194L531.769 120.704L531.769 120.704L529.835 120.194ZM528.019 126.973L526.088 126.449L526.088 126.45L528.019 126.973ZM527.002 130.694L525.074 130.162L525.074 130.163L527.002 130.694ZM521.421 150.944L519.493 150.413L519.493 150.413L521.421 150.944ZM515.335 172.945L513.409 172.407L513.409 172.407L515.335 172.945ZM507.447 201.944L505.515 201.429L505.515 201.429L507.447 201.944ZM504.438 210.839L505.867 212.238L505.868 212.237L504.438 210.839ZM479.529 212.229L479.488 210.229L479.488 210.229L479.529 212.229ZM454.889 211.14L456.756 210.424L456.755 210.422L454.889 211.14ZM474.67 135.944L472.744 135.405L472.744 135.405L474.67 135.944ZM480.843 113.835L478.916 113.3L478.916 113.3L480.843 113.835ZM482.189 108.944L480.253 108.442L480.253 108.443L482.189 108.944ZM490.581 78.4444L492.508 78.9771L492.508 78.9769L490.581 78.4444ZM789.451 7.44436L789.42 5.44461L789.42 5.44461L789.451 7.44436ZM757.951 7.94436L757.92 5.94461L756.74 5.96333L756.186 7.005L757.951 7.94436ZM822.08 7.94436L823.407 6.4474L823.407 6.44738L822.08 7.94436ZM824.886 23.4444L826.873 23.2147L826.873 23.2146L824.886 23.4444ZM829.457 61.4444L827.473 61.6926L827.473 61.6927L829.457 61.4444ZM831.454 77.9444L833.441 77.7109L833.441 77.7105L831.454 77.9444ZM845.477 175.945L847.452 175.625L847.452 175.625L845.477 175.945ZM850.127 206.194L848.14 206.423L848.14 206.423L850.127 206.194ZM850.731 211.445V213.445H852.974L852.718 211.216L850.731 211.445ZM797.489 211.445L795.537 211.877L795.884 213.445H797.489V211.445ZM796.991 209.195L798.944 208.762L798.944 208.761L796.991 209.195ZM794.899 192.444L796.887 192.226L796.887 192.226L794.899 192.444ZM792.628 177.444L793.818 175.837L793.817 175.836L792.628 177.444ZM756.834 177.253L756.817 175.253L756.817 175.253L756.834 177.253ZM721.717 177.562L721.7 175.562L720.451 175.573L719.913 176.7L721.717 177.562ZM705.535 211.445V213.445H706.797L707.34 212.306L705.535 211.445ZM651.894 209.695L653.766 210.398L653.767 210.398L651.894 209.695ZM704.954 108.444L706.721 109.382L706.721 109.382L704.954 108.444ZM719.471 80.9444L717.7 80.016L717.7 80.016L719.471 80.9444ZM728.169 64.5455L729.923 65.5061L729.923 65.5061L728.169 64.5455ZM739.476 43.0455L741.25 43.9687L741.25 43.9686L739.476 43.0455ZM753.163 16.9444L754.929 17.8839L754.929 17.8837L753.163 16.9444ZM776.534 66.6945L778.369 67.4912L778.369 67.491L776.534 66.6945ZM766.694 87.4444L764.894 86.5724L764.894 86.5725L766.694 87.4444ZM779.165 62.4454L779.161 64.4454H779.165V62.4454ZM783.272 94.1954L781.283 94.4034L781.283 94.4035L783.272 94.1954ZM787.375 130.676L789.349 130.351L789.348 130.35L787.375 130.676ZM787.789 134.589L785.79 134.635L785.79 134.635L787.789 134.589ZM787.637 135.926L789.051 137.341L789.054 137.337L787.637 135.926ZM602.634 118.203L600.804 119.009L604.574 117.715L602.634 118.203ZM425.998 3.55859V1.55859H424.414L424.051 3.09999L425.998 3.55859ZM600.444 109.444L598.503 109.927L598.503 109.928L600.444 109.444ZM588.088 60.0566L590.027 59.5688L590.008 59.4932L589.984 59.4194L588.088 60.0566ZM314.452 3.95267L314.249 1.96295C298.748 3.54096 288.74 5.79687 278.601 10.0738L279.378 11.9165L280.156 13.7593C289.806 9.68852 299.391 7.49621 314.654 5.94239L314.452 3.95267ZM335.095 2.56154L335.066 0.561753C330.507 0.627856 321.154 1.25967 314.249 1.96296L314.452 3.95267L314.654 5.94238C321.499 5.24528 330.725 4.62511 335.124 4.56133L335.095 2.56154ZM375.952 6.42339L376.359 4.46519C367.88 2.70394 343.866 0.435669 335.066 0.561748L335.095 2.56154L335.123 4.56134C343.637 4.43937 367.358 6.68093 375.545 8.38159L375.952 6.42339ZM383.952 8.03469L384.327 6.07014C382.692 5.75813 379.104 5.03554 376.359 4.4652L375.952 6.42339L375.545 8.38158C378.3 8.95382 381.911 9.68136 383.577 9.99924L383.952 8.03469ZM388.117 8.96144L388.698 7.04785C387.943 6.81846 385.973 6.3845 384.327 6.07016L383.952 8.03469L383.577 9.99922C385.23 10.3148 387.008 10.7148 387.535 10.875L388.117 8.96144ZM386.847 18.4404L388.779 18.9563C389.645 15.7127 390.199 13.2984 390.422 11.632C390.531 10.8199 390.584 10.0326 390.491 9.36296C390.416 8.82098 390.108 7.47761 388.7 7.04833L388.117 8.96144L387.534 10.8746C386.538 10.5713 386.495 9.66612 386.529 9.91303C386.546 10.0323 386.554 10.3846 386.458 11.1011C386.271 12.492 385.777 14.6912 384.914 17.9246L386.847 18.4404ZM376.074 54.1558L377.487 55.5706C377.771 55.2872 377.924 54.9539 377.939 54.9234C378 54.8009 378.057 54.6688 378.107 54.546C378.21 54.2957 378.33 53.9736 378.461 53.6035C378.726 52.8573 379.069 51.8278 379.468 50.5921C380.266 48.1161 381.305 44.7567 382.421 41.0564C384.652 33.658 387.206 24.8525 388.779 18.956L386.847 18.4404L384.914 17.9249C383.357 23.7622 380.817 32.5217 378.591 39.9013C377.479 43.5899 376.448 46.9226 375.661 49.3647C375.266 50.5881 374.937 51.5741 374.692 52.2653C374.568 52.6138 374.473 52.8659 374.407 53.0283C374.391 53.0672 374.378 53.0969 374.368 53.1186C374.358 53.1411 374.354 53.1494 374.355 53.1469C374.356 53.1453 374.36 53.1383 374.366 53.127C374.372 53.1162 374.382 53.0968 374.398 53.0715C374.411 53.0493 374.499 52.9021 374.66 52.741L376.074 54.1558ZM365.288 51.9854L364.796 53.9241C367.662 54.6506 370.33 55.2631 372.325 55.6647C373.318 55.8645 374.173 56.0178 374.812 56.1053C375.125 56.1481 375.435 56.1822 375.703 56.1916C375.831 56.196 376.015 56.1977 376.214 56.1737C376.313 56.1618 376.471 56.1372 376.653 56.0785C376.806 56.029 377.161 55.8981 377.489 55.5687L376.074 54.1558L374.658 52.743C374.972 52.429 375.302 52.3112 375.422 52.2725C375.57 52.2245 375.687 52.2083 375.735 52.2025C375.833 52.1907 375.882 52.1954 375.842 52.194C375.775 52.1917 375.621 52.1788 375.355 52.1424C374.837 52.0714 374.077 51.9369 373.114 51.7433C371.2 51.3581 368.599 50.7617 365.779 50.0468L365.288 51.9854ZM308.452 49.5426L309.086 51.4393C313.759 49.8764 323.102 49.311 333.778 49.7698C344.362 50.2248 355.9 51.6685 364.796 53.9241L365.288 51.9854L365.779 50.0468C356.546 47.7057 344.723 46.2366 333.95 45.7735C323.268 45.3144 313.258 45.8259 307.817 47.6458L308.452 49.5426ZM297.85 60.1305L299.816 60.4991C300.084 59.0735 301.21 57.1801 303.021 55.3712C304.801 53.5939 307.008 52.134 309.086 51.4393L308.452 49.5426L307.817 47.6458C305.035 48.5761 302.314 50.4238 300.194 52.5411C298.106 54.6267 296.362 57.2148 295.885 59.7618L297.85 60.1305ZM324.985 89.9444L326.002 88.2219C313.827 81.0389 306.833 76.2868 303.079 72.1617C301.246 70.1476 300.263 68.3624 299.805 66.5927C299.344 64.8136 299.369 62.8819 299.816 60.4992L297.85 60.1305L295.885 59.7617C295.372 62.4967 295.276 65.0613 295.932 67.5954C296.591 70.1388 297.963 72.4835 300.121 74.8542C304.348 79.4988 311.882 84.536 323.969 91.667L324.985 89.9444ZM358.248 119.444L360.049 118.575C354.776 107.651 346.004 100.022 326.002 88.2219L324.985 89.9444L323.969 91.667C343.859 103.401 351.721 110.524 356.446 120.314L358.248 119.444ZM318.32 206.929L319.125 208.76C355.92 192.58 375.464 150.512 360.049 118.575L358.248 119.444L356.446 120.314C370.637 149.713 352.781 189.591 317.515 205.098L318.32 206.929ZM236.808 214.958L236.595 216.946C269.533 220.481 298.922 217.644 319.125 208.76L318.32 206.929L317.515 205.098C298.203 213.59 269.601 216.465 237.022 212.969L236.808 214.958ZM202.452 208.977H200.452C200.452 209.638 200.751 210.111 200.952 210.357C201.156 210.606 201.379 210.774 201.531 210.876C201.837 211.081 202.183 211.235 202.479 211.352C203.096 211.595 203.923 211.838 204.877 212.079C206.806 212.566 209.522 213.112 212.745 213.672C219.202 214.797 227.835 216.006 236.595 216.946L236.808 214.958L237.022 212.969C228.335 212.037 219.79 210.839 213.431 209.732C210.245 209.177 207.642 208.651 205.856 208.2C204.951 207.972 204.321 207.779 203.946 207.631C203.745 207.552 203.711 207.522 203.761 207.555C203.784 207.571 203.91 207.656 204.049 207.825C204.185 207.992 204.452 208.388 204.452 208.977H202.452ZM206.323 195.346L204.401 194.791C203.336 198.478 202.367 201.857 201.665 204.331C201.313 205.568 201.028 206.581 200.83 207.295C200.731 207.651 200.652 207.938 200.598 208.142C200.571 208.243 200.548 208.332 200.53 208.403C200.522 208.437 200.511 208.481 200.502 208.524C200.497 208.545 200.49 208.582 200.482 208.625C200.478 208.647 200.472 208.683 200.467 208.727C200.463 208.759 200.452 208.855 200.452 208.977H202.452H204.452C204.452 209.097 204.44 209.19 204.437 209.218C204.432 209.259 204.426 209.291 204.424 209.308C204.418 209.341 204.412 209.365 204.411 209.371C204.409 209.383 204.408 209.384 204.413 209.364C204.422 209.328 204.438 209.266 204.463 209.172C204.512 208.988 204.586 208.717 204.684 208.365C204.879 207.663 205.162 206.658 205.512 205.424C206.213 202.957 207.18 199.584 208.244 195.901L206.323 195.346ZM212.415 173.445L210.481 172.938C209.263 177.591 206.527 187.428 204.401 194.791L206.323 195.346L208.244 195.9C210.374 188.521 213.121 178.649 214.35 173.951L212.415 173.445ZM215.422 164.118L213.972 162.741C213.678 163.05 213.494 163.43 213.418 163.589C213.305 163.822 213.191 164.094 213.079 164.383C212.852 164.966 212.59 165.722 212.312 166.585C211.753 168.318 211.099 170.572 210.48 172.939L212.415 173.445L214.35 173.95C214.954 171.642 215.587 169.461 216.119 167.812C216.385 166.985 216.619 166.314 216.806 165.835C216.9 165.594 216.972 165.428 217.021 165.326C217.106 165.149 217.059 165.299 216.873 165.495L215.422 164.118ZM222.578 164.797L223.039 162.851C221.217 162.42 219.443 162.119 218.037 161.985C217.341 161.919 216.679 161.888 216.122 161.918C215.848 161.933 215.536 161.965 215.231 162.04C214.998 162.098 214.432 162.255 213.97 162.742L215.422 164.118L216.874 165.493C216.676 165.702 216.48 165.807 216.384 165.852C216.28 165.901 216.207 165.92 216.188 165.924C216.156 165.932 216.194 165.92 216.336 165.913C216.614 165.898 217.057 165.91 217.659 165.967C218.846 166.08 220.435 166.346 222.118 166.744L222.578 164.797ZM300.428 161.748L298.856 160.511C296.996 162.876 293.881 164.862 289.446 166.321C285.024 167.776 279.431 168.659 272.81 168.918C259.57 169.437 242.487 167.452 223.039 162.851L222.578 164.797L222.118 166.744C241.786 171.397 259.25 173.452 272.967 172.915C279.825 172.646 285.812 171.727 290.696 170.121C295.566 168.519 299.482 166.184 302 162.984L300.428 161.748ZM300.361 141.509L298.947 142.923C303.179 147.155 303.405 154.728 298.856 160.511L300.428 161.748L302 162.984C307.546 155.933 307.714 146.033 301.775 140.095L300.361 141.509ZM280.649 128.586L279.629 130.306C284.198 133.018 288.686 135.818 292.231 138.142C294.004 139.305 295.532 140.341 296.71 141.184C297.932 142.057 298.666 142.642 298.947 142.923L300.361 141.509L301.776 140.095C301.228 139.546 300.231 138.783 299.036 137.929C297.798 137.045 296.223 135.976 294.424 134.797C290.823 132.436 286.284 129.605 281.67 126.866L280.649 128.586ZM257.575 113.882L256.372 115.481C259.977 118.193 270.445 124.859 279.629 130.307L280.649 128.586L281.67 126.866C272.485 121.418 262.188 114.85 258.777 112.284L257.575 113.882ZM238.469 66.3219L236.487 66.0505C235.062 76.4569 235.934 85.765 239.256 94.0341C242.581 102.309 248.304 109.41 256.372 115.481L257.575 113.882L258.777 112.284C251.196 106.581 245.979 100.037 242.968 92.543C239.955 85.0431 239.099 76.4579 240.45 66.5933L238.469 66.3219ZM279.378 11.9165L278.601 10.0737C254.683 20.1612 240.112 39.5736 236.487 66.0506L238.469 66.3219L240.45 66.5931C243.891 41.4597 257.59 23.2763 280.156 13.7593L279.378 11.9165ZM182.329 7.24074L182.224 5.24351L176.601 5.5394L176.706 7.53664L176.812 9.53388L182.435 9.23798L182.329 7.24074ZM232.148 7.80764L233.563 6.39342C233.309 6.14006 233.05 6.01709 232.956 5.97448C232.833 5.91856 232.726 5.88419 232.66 5.86474C232.527 5.82558 232.406 5.80211 232.326 5.78819C232.158 5.75888 231.968 5.7369 231.785 5.7191C231.407 5.68248 230.899 5.64883 230.294 5.61718C229.078 5.55348 227.375 5.49311 225.34 5.43732C221.265 5.32562 215.805 5.23093 210.113 5.16616C198.764 5.03703 186.368 5.02528 182.224 5.24351L182.329 7.24074L182.435 9.23797C186.422 9.02798 198.672 9.03625 210.068 9.16591C215.748 9.23054 221.185 9.32493 225.23 9.43582C227.255 9.49133 228.919 9.55064 230.085 9.61171C230.673 9.64246 231.111 9.67247 231.398 9.70039C231.547 9.71485 231.619 9.72535 231.638 9.72869C231.652 9.7311 231.605 9.72399 231.528 9.70123C231.49 9.68998 231.406 9.66382 231.301 9.61612C231.225 9.58173 230.979 9.46698 230.734 9.22185L232.148 7.80764ZM230.573 15.0987L232.491 15.6646C233.056 13.7477 233.525 11.937 233.823 10.5556C233.971 9.8716 234.086 9.25378 234.146 8.76586C234.175 8.52995 234.2 8.26219 234.196 8.00685C234.194 7.88297 234.185 7.69422 234.142 7.48336C234.113 7.34303 234.004 6.83647 233.565 6.39625L232.148 7.80764L230.731 9.21902C230.323 8.80944 230.238 8.35724 230.225 8.29374C230.197 8.1597 230.197 8.07025 230.196 8.06689C230.196 8.0526 230.197 8.11077 230.176 8.27574C230.138 8.58957 230.051 9.07323 229.914 9.71069C229.641 10.9723 229.2 12.6845 228.654 14.5327L230.573 15.0987ZM225.961 31.9444L227.897 32.4461C229.319 26.9586 231.387 19.4014 232.491 15.6653L230.573 15.0987L228.655 14.532C227.534 18.3263 225.454 25.9302 224.025 31.4426L225.961 31.9444ZM221.933 46.9444L223.856 47.4973C224.654 44.7208 226.473 37.9498 227.897 32.4456L225.961 31.9444L224.025 31.4431C222.602 36.9389 220.795 43.668 220.011 46.3915L221.933 46.9444ZM212.449 81.4444L214.382 81.9576C216.971 72.2042 221.756 54.8008 223.856 47.4969L221.933 46.9444L220.011 46.3919C217.903 53.7286 213.11 71.1592 210.516 80.9312L212.449 81.4444ZM201.455 121.444L203.382 121.982C207.627 106.775 212.493 89.0689 214.382 81.9578L212.449 81.4444L210.516 80.931C208.634 88.0162 203.774 105.702 199.529 120.907L201.455 121.444ZM197.46 135.944L199.389 136.474C201.05 130.422 202.845 123.903 203.382 121.983L201.455 121.444L199.529 120.906C198.99 122.837 197.191 129.367 195.532 135.415L197.46 135.944ZM150.952 204.306L151.847 206.094C164.081 199.971 173.319 192.391 180.837 181.341C188.319 170.343 194.031 156.004 199.389 136.474L197.46 135.944L195.532 135.415C190.219 154.778 184.648 168.627 177.529 179.091C170.446 189.503 161.765 196.657 150.056 202.517L150.952 204.306ZM94.7084 216.444L94.7081 218.444C117.432 218.446 134.483 214.785 151.847 206.094L150.952 204.306L150.056 202.517C133.34 210.884 116.921 214.446 94.7086 214.444L94.7084 216.444ZM30.1303 191.149L28.464 192.255C39.8262 209.372 63.6467 218.44 94.7081 218.444L94.7084 216.444L94.7086 214.444C64.188 214.44 42.0642 205.511 31.7966 190.042L30.1303 191.149ZM22.3466 162.855L20.3466 162.855C20.3516 174.969 22.6792 183.539 28.4639 192.255L30.1303 191.149L31.7966 190.043C26.5198 182.092 24.3513 174.324 24.3466 162.854L22.3466 162.855ZM22.3773 157.28L20.3786 157.208C20.3163 158.945 20.3456 160.705 20.3466 162.855L22.3466 162.855L24.3466 162.854C24.3456 160.614 24.3172 158.992 24.3761 157.352L22.3773 157.28ZM41.5985 80.9444L39.6703 80.4134C31.3487 110.629 26.6074 127.747 23.9133 138.301C21.2199 148.851 20.5301 152.994 20.3786 157.208L22.3773 157.28L24.376 157.352C24.5112 153.592 25.1063 149.799 27.789 139.29C30.471 128.784 35.197 111.721 43.5267 81.4755L41.5985 80.9444ZM51.3612 33.9444L49.4374 34.4909C50.0099 36.5061 50.1463 38.8103 48.7933 45.324C47.4384 51.8469 44.6638 62.2814 39.6703 80.4134L41.5985 80.9444L43.5267 81.4754C48.5083 63.3868 51.3231 52.8133 52.7098 46.1375C54.0983 39.4524 54.1286 36.3669 53.2851 33.3978L51.3612 33.9444ZM41.2982 21.7647L40.2759 23.4836C43.2354 25.2437 45.1229 26.7219 46.4637 28.3447C47.7848 29.9437 48.6748 31.8047 49.4373 34.4906L51.3612 33.9444L53.2852 33.3982C52.4261 30.3721 51.3297 27.9542 49.5474 25.7969C47.7846 23.6634 45.4514 21.9077 42.3206 20.0457L41.2982 21.7647ZM12.4862 12.4444V14.4444C13.2899 14.4444 15.077 14.7651 17.6058 15.4047C20.0524 16.0236 22.9873 16.8855 25.9623 17.8478C31.9915 19.7981 37.8971 22.0684 40.2757 23.4835L41.2982 21.7647L42.3208 20.0458C39.5016 18.3686 33.1809 15.9788 27.1934 14.042C24.16 13.0608 21.1389 12.1724 18.5867 11.5269C16.1168 10.9021 13.8623 10.4444 12.4862 10.4444V12.4444ZM7.0956 8.92971L5.2284 8.21308C4.36871 10.453 5.99258 12.1919 7.23151 12.9998C8.61952 13.9048 10.521 14.4444 12.4862 14.4444V12.4444V10.4444C11.1917 10.4444 10.0717 10.0765 9.41624 9.64909C9.0864 9.43402 8.97911 9.27357 8.96558 9.2484C8.96389 9.24527 8.98894 9.29131 8.99738 9.38078C9.00642 9.47651 8.99142 9.57178 8.9628 9.64633L7.0956 8.92971ZM60.0585 7.44436V5.44436C37.3644 5.44436 24.2145 5.49373 16.6773 5.70515C12.9259 5.81038 10.4798 5.95733 8.91907 6.17354C8.15135 6.27989 7.47252 6.41854 6.92235 6.63362C6.41232 6.83301 5.59357 7.26096 5.22824 8.21351L7.0956 8.92971L8.96297 9.64591C8.72105 10.2767 8.23088 10.4169 8.37876 10.3591C8.4865 10.3169 8.79492 10.2289 9.46794 10.1357C10.7887 9.95274 13.0381 9.8088 16.7894 9.70358C24.2576 9.4941 37.3424 9.44436 60.0585 9.44436V7.44436ZM112.452 9.37746H114.452C114.452 9.0805 114.449 8.29837 113.904 7.56276C113.384 6.86063 112.631 6.54109 112.018 6.36093C110.818 6.00842 108.803 5.82704 105.5 5.70512C98.7439 5.4558 85.5935 5.44436 60.0585 5.44436V7.44436V9.44436C85.6455 9.44436 98.6916 9.45659 105.352 9.70239C108.756 9.82803 110.255 10.0121 110.891 10.1988C111.195 10.2883 110.941 10.2818 110.69 9.94321C110.414 9.57112 110.452 9.20298 110.452 9.37746H112.452ZM96.5565 71.9444L98.4874 72.4657C101.975 59.5464 105.951 44.3 109.056 32.0796C110.608 25.97 111.944 20.6111 112.892 16.675C113.366 14.7084 113.746 13.0881 114.007 11.9037C114.138 11.313 114.242 10.818 114.314 10.4372C114.37 10.1438 114.452 9.70718 114.452 9.37746H112.452H110.452C110.452 9.25025 110.463 9.27796 110.385 9.68973C110.323 10.0141 110.229 10.4652 110.102 11.0406C109.848 12.1883 109.475 13.78 109.004 15.738C108.061 19.6513 106.73 24.9922 105.179 31.0947C102.079 43.2985 98.1076 58.5256 94.6256 71.4231L96.5565 71.9444ZM80.5126 134.622L82.4584 135.084C84.6185 125.994 95.2582 84.426 98.4874 72.4657L96.5565 71.9444L94.6256 71.4231C91.389 83.4111 80.7387 125.02 78.5668 134.159L80.5126 134.622ZM91.8422 169.969L92.4117 168.052C86.8752 166.407 83.3785 163.021 81.7007 157.786C79.9747 152.401 80.1279 144.896 82.4585 135.084L80.5126 134.622L78.5667 134.159C76.1663 144.266 75.8415 152.61 77.8916 159.007C79.9899 165.554 84.5235 169.881 91.2727 171.886L91.8422 169.969ZM129.295 161.248L127.888 159.826C119.49 168.142 104.562 171.659 92.4114 168.052L91.8422 169.969L91.273 171.886C104.721 175.879 121.192 172.085 130.702 162.669L129.295 161.248ZM162.438 60.9444L160.504 60.4345C148.647 105.408 142.611 128.194 138.427 140.857C136.337 147.181 134.749 150.853 133.188 153.46C131.651 156.028 130.099 157.637 127.888 159.826L129.295 161.248L130.703 162.669C132.95 160.443 134.809 158.54 136.62 155.515C138.408 152.529 140.105 148.528 142.225 142.112C146.459 129.299 152.536 106.348 164.372 61.4543L162.438 60.9444ZM171.945 25.2407L170.014 24.7213C167.394 34.4613 163.115 50.5315 160.504 60.4346L162.438 60.9444L164.372 61.4542C166.981 51.5575 171.259 35.4938 173.877 25.7602L171.945 25.2407ZM176.706 7.53664L174.775 7.01723L170.014 24.7213L171.945 25.2407L173.877 25.7602L178.638 8.05605L176.706 7.53664ZM648.451 7.32668L648.103 5.35717C646.569 5.62821 645.108 5.99662 643.957 7.1075C642.869 8.15799 642.304 9.64798 641.763 11.3328L643.667 11.9444L645.571 12.5559C646.133 10.8062 646.458 10.2527 646.735 9.98567C646.949 9.77905 647.329 9.55591 648.799 9.29619L648.451 7.32668ZM673.808 6.57668L673.796 4.57671C667.773 4.61268 661.899 4.71533 657.285 4.85185C654.979 4.92008 652.979 4.997 651.43 5.07879C649.933 5.15777 648.728 5.24667 648.103 5.35723L648.451 7.32668L648.8 9.29613C649.137 9.23652 650.08 9.15556 651.64 9.07323C653.147 8.9937 655.113 8.91785 657.403 8.8501C661.981 8.71464 667.823 8.61245 673.82 8.57664L673.808 6.57668ZM695.1 7.9175L696.968 8.63363C697.147 8.16659 697.31 7.35811 696.851 6.5251C696.447 5.79023 695.774 5.45334 695.359 5.29161C694.532 4.9695 693.327 4.82484 691.84 4.73121C688.73 4.53536 683.204 4.51976 673.796 4.57672L673.808 6.57668L673.82 8.57664C683.285 8.51934 688.649 8.53816 691.589 8.7233C693.127 8.82015 693.737 8.95263 693.907 9.01902C693.991 9.05154 693.613 8.93675 693.348 8.45491C693.028 7.87493 693.176 7.35041 693.233 7.20137L695.1 7.9175ZM691.566 20.6675L693.5 21.1767C694.315 18.0819 695.119 15.1052 695.756 12.8039C696.075 11.6527 696.352 10.6752 696.567 9.93861C696.674 9.56985 696.765 9.26704 696.836 9.03565C696.872 8.91994 696.902 8.8266 696.926 8.75446C696.938 8.71858 696.947 8.69031 696.955 8.66879C696.959 8.65816 696.962 8.64998 696.964 8.64401C696.965 8.64107 696.966 8.63885 696.966 8.63731C696.967 8.63576 696.967 8.63506 696.967 8.63516L695.1 7.9175L693.233 7.19984C693.033 7.72014 692.525 9.48486 691.902 11.7356C691.258 14.0563 690.45 17.0499 689.632 20.1583L691.566 20.6675ZM681.642 56.4444L683.566 56.9905C687.391 43.5146 691.862 27.3987 693.5 21.1767L691.566 20.6675L689.632 20.1583C688.004 26.3406 683.543 42.425 679.718 55.8983L681.642 56.4444ZM658.249 139.444L660.185 139.948C661.15 136.239 672.157 97.184 683.566 56.9906L681.642 56.4444L679.718 55.8983C668.319 96.0535 657.293 135.176 656.314 138.941L658.249 139.444ZM649.178 171.445L651.1 171.998C658.298 147.017 658.872 144.992 660.185 139.948L658.249 139.444L656.314 138.941C655.018 143.921 654.462 145.883 647.257 170.891L649.178 171.445ZM644.268 188.65L646.193 189.193C647.651 184.03 649.393 177.923 651.1 171.998L649.178 171.445L647.257 170.891C645.547 176.822 643.804 182.936 642.344 188.106L644.268 188.65ZM640.919 200.714L642.854 201.221C643.357 199.303 644.604 194.817 646.193 189.193L644.268 188.65L642.344 188.106C640.757 193.722 639.5 198.245 638.985 200.206L640.919 200.714ZM638.047 208.87L639.615 210.111C639.947 209.692 640.229 209.097 640.448 208.594C640.694 208.026 640.96 207.332 641.23 206.566C641.77 205.031 642.353 203.13 642.854 201.221L640.919 200.714L638.985 200.206C638.509 202.02 637.958 203.815 637.457 205.237C637.206 205.95 636.975 206.549 636.779 207C636.555 207.516 636.449 207.666 636.479 207.629L638.047 208.87ZM612.944 210.783L612.994 212.783C622.447 212.544 628.578 212.312 632.45 212.012C634.378 211.863 635.82 211.693 636.86 211.478C637.379 211.371 637.864 211.239 638.288 211.063C638.683 210.899 639.214 210.62 639.617 210.109L638.047 208.87L636.477 207.631C636.685 207.367 636.876 207.318 636.753 207.37C636.657 207.41 636.444 207.479 636.051 207.56C635.266 207.722 634.028 207.878 632.142 208.024C628.387 208.315 622.356 208.545 612.893 208.784L612.944 210.783ZM615.597 181.723L613.597 181.707C613.505 193.179 612.764 201.854 610.986 210.375L612.944 210.783L614.901 211.192C616.751 202.33 617.504 193.373 617.597 181.739L615.597 181.723ZM615.606 180.057H613.606C613.606 180.606 613.603 181.154 613.597 181.702L615.597 181.723L617.597 181.744C617.603 181.182 617.606 180.62 617.606 180.057H615.606ZM609.067 135.592L607.153 136.17C611.349 150.059 613.606 164.793 613.606 180.057H615.606H617.606C617.606 164.397 615.291 149.274 610.982 135.013L609.067 135.592ZM625.968 74.9444L624.029 74.4548C622.449 80.7136 609.288 127.892 607.151 135.017L609.067 135.592L610.983 136.166C613.132 128.999 626.31 81.7622 627.908 75.434L625.968 74.9444ZM643.667 11.9444L641.763 11.333C640.17 16.2943 625.782 67.5131 624.029 74.4549L625.968 74.9444L627.908 75.4339C629.646 68.5456 644.012 17.4128 645.571 12.5557L643.667 11.9444ZM424.553 9.69436C422.654 9.06455 422.654 9.06459 422.654 9.06463C422.654 9.06465 422.654 9.0647 422.654 9.06475C422.654 9.06485 422.654 9.06497 422.654 9.06513C422.654 9.06545 422.654 9.06588 422.654 9.06644C422.653 9.06755 422.653 9.06914 422.652 9.0712C422.651 9.07533 422.649 9.08136 422.646 9.08921C422.641 9.1049 422.633 9.12792 422.624 9.15774C422.604 9.21738 422.575 9.30427 422.539 9.41434C422.467 9.63442 422.365 9.94747 422.246 10.3209C422.006 11.0662 421.693 12.0583 421.402 13.0337L423.318 13.606L425.235 14.1783C425.515 13.2391 425.819 12.2754 426.054 11.5436C426.171 11.1784 426.271 10.8725 426.341 10.6583C426.376 10.5512 426.404 10.4671 426.422 10.4101C426.432 10.3815 426.439 10.3598 426.444 10.3453C426.446 10.3381 426.448 10.3326 426.449 10.3291C426.45 10.3273 426.45 10.326 426.45 10.3252C426.451 10.3248 426.451 10.3245 426.451 10.3243C426.451 10.3242 426.451 10.3242 426.451 10.3241C426.451 10.3241 426.451 10.3241 426.451 10.3241C426.451 10.3241 426.451 10.3242 424.553 9.69436ZM423.318 13.606L421.402 13.0339C420.707 15.3621 419.835 18.3879 418.995 21.4086L420.922 21.9444L422.849 22.4801C423.683 19.4803 424.548 16.4789 425.235 14.1781L423.318 13.606ZM420.922 21.9444L418.995 21.4089C418.386 23.6016 417.267 27.6057 415.872 32.5889L417.798 33.1279L419.724 33.667C421.119 28.6844 422.239 24.6767 422.849 22.4798L420.922 21.9444ZM417.798 33.1279L418.356 35.0486C431.693 31.1744 441.989 29.6163 462.211 28.5539L462.106 26.5567L462.001 24.5594C441.589 25.6318 430.967 27.2202 417.24 31.2073L417.798 33.1279ZM462.106 26.5567L462.004 28.5541C476.708 29.3044 484.083 29.914 489.18 30.714C494.245 31.509 497.034 32.4826 502.778 34.0775L503.313 32.1504L503.848 30.2233C498.28 28.6773 495.162 27.604 489.8 26.7624C484.47 25.9257 476.899 25.3089 462.208 24.5593L462.106 26.5567ZM421.368 41.379L420.788 39.4649C418.694 40.0996 416.53 40.7984 414.262 41.5674L414.904 43.4615L415.546 45.3556C417.78 44.5983 419.902 43.9132 421.948 43.293L421.368 41.379ZM473.598 36.0069L473.755 34.013C469.911 33.7106 466.026 33.5567 462.106 33.5567V35.5567V37.5567C465.922 37.5567 469.702 37.7065 473.441 38.0007L473.598 36.0069ZM469.744 49.9547L471.672 50.4857C472.784 46.4462 474.143 41.5258 475.525 36.541L473.598 36.0069L471.67 35.4727C470.288 40.4595 468.928 45.382 467.815 49.4236L469.744 49.9547ZM467.418 58.4444L469.349 58.9653C469.759 57.4453 470.6 54.377 471.672 50.4856L469.744 49.9547L467.815 49.4237C466.744 53.3136 465.901 56.3918 465.487 57.9235L467.418 58.4444ZM458.182 91.9444L460.109 92.4786C464.224 77.6319 468.383 62.5486 469.349 58.965L467.418 58.4444L465.487 57.9238C464.526 61.4906 460.371 76.5578 456.254 91.4103L458.182 91.9444ZM444.973 139.944L446.902 140.47C450.05 128.924 455.993 107.327 460.109 92.4787L458.182 91.9444L456.254 91.4102C452.138 106.262 446.193 127.865 443.043 139.418L444.973 139.944ZM436.819 169.445L438.742 169.994C440.082 165.306 443.754 152.021 446.902 140.47L444.973 139.944L443.043 139.418C439.895 150.969 436.228 164.233 434.896 168.895L436.819 169.445ZM429.015 197.674L430.947 198.194C434.805 183.84 435.35 181.868 438.742 169.994L436.819 169.445L434.896 168.895C431.497 180.793 430.946 182.785 427.084 197.155L429.015 197.674ZM424.963 211.425L426.664 212.477C426.834 212.202 426.966 211.843 427.038 211.648C427.137 211.378 427.253 211.036 427.381 210.641C427.638 209.848 427.963 208.784 428.332 207.53C429.072 205.02 430.003 201.707 430.947 198.194L429.015 197.674L427.084 197.155C426.146 200.645 425.224 203.926 424.495 206.4C424.13 207.638 423.817 208.663 423.576 209.407C423.455 209.781 423.356 210.069 423.282 210.271C423.18 210.549 423.179 210.506 423.263 210.372L424.963 211.425ZM371.145 211.518L370.434 213.387C370.897 213.563 371.512 213.66 372.049 213.729C372.653 213.806 373.402 213.874 374.262 213.935C375.986 214.057 378.237 214.156 380.82 214.233C385.99 214.388 392.557 214.458 399.034 214.447C405.511 214.435 411.918 214.343 416.765 214.17C419.184 214.084 421.241 213.978 422.732 213.849C423.47 213.785 424.115 213.712 424.611 213.624C424.851 213.582 425.12 213.526 425.368 213.445C425.49 213.405 425.666 213.34 425.852 213.238C425.996 213.159 426.381 212.935 426.665 212.476L424.963 211.425L423.262 210.373C423.52 209.955 423.856 209.771 423.928 209.731C424.042 209.669 424.122 209.643 424.127 209.642C424.14 209.638 424.084 209.656 423.916 209.685C423.595 209.742 423.088 209.803 422.387 209.864C420.998 209.984 419.021 210.088 416.623 210.173C411.837 210.343 405.479 210.435 399.027 210.447C392.577 210.458 386.054 210.388 380.939 210.235C378.379 210.158 376.19 210.061 374.545 209.945C373.72 209.886 373.054 209.824 372.555 209.761C371.991 209.689 371.819 209.634 371.855 209.648L371.145 211.518ZM369.654 211.016L368.416 212.587C368.956 213.012 369.565 213.155 369.799 213.213C370.133 213.297 370.26 213.321 370.434 213.387L371.145 211.518L371.855 209.648C371.395 209.473 370.939 209.375 370.769 209.333C370.659 209.305 370.638 209.297 370.65 209.301C370.669 209.308 370.769 209.348 370.892 209.445L369.654 211.016ZM377.476 178.444L375.548 177.911C371.722 191.735 369.47 199.699 368.323 204.3C367.755 206.576 367.423 208.164 367.326 209.271C367.241 210.255 367.253 211.669 368.416 212.586L369.654 211.016L370.893 209.446C371.488 209.915 371.235 210.496 371.311 209.618C371.377 208.863 371.633 207.559 372.204 205.267C373.335 200.733 375.561 192.859 379.403 178.978L377.476 178.444ZM381.558 163.64L379.63 163.11C378.321 167.873 376.898 173.032 375.548 177.911L377.476 178.444L379.403 178.978C380.754 174.096 382.177 168.935 383.487 164.17L381.558 163.64ZM386.113 146.944L384.181 146.427C383.38 149.418 381.64 155.793 379.63 163.11L381.558 163.64L383.487 164.17C385.497 156.854 387.241 150.467 388.045 147.462L386.113 146.944ZM410.419 59.4444L408.494 58.9036C398.343 95.0482 387.196 135.177 384.181 146.427L386.113 146.944L388.045 147.462C391.053 136.24 402.192 96.1346 412.345 59.9852L410.419 59.4444ZM414.904 43.4615L412.978 42.9216C411.53 48.0875 409.983 53.6033 408.494 58.9036L410.419 59.4444L412.345 59.9852C413.834 54.684 415.381 49.1676 416.829 44.0014L414.904 43.4615ZM606.606 180.057H608.606C608.606 112.783 563.262 56.1037 501.473 38.9068L500.937 40.8335L500.401 42.7603C560.504 59.4882 604.606 114.625 604.606 180.057H606.606ZM603.277 211.008L605.235 211.413C607.056 202.607 607.99 193.101 608.604 180.152L606.606 180.057L604.608 179.962C603.998 192.826 603.077 202.095 601.318 210.604L603.277 211.008ZM574.951 211.639L574.996 213.638L603.321 213.008L603.277 211.008L603.232 209.009L574.907 209.639L574.951 211.639ZM568.739 186.792L566.799 187.277L573.011 212.124L574.951 211.639L576.892 211.154L570.68 186.307L568.739 186.792ZM552.277 120.707L550.336 121.189C555.973 143.871 563.382 173.61 566.799 187.277L568.739 186.792L570.68 186.307C567.263 172.642 559.855 142.905 554.218 120.224L552.277 120.707ZM541.359 80.2066L542.843 81.5479C542.64 81.7719 542.324 82.0158 541.883 82.133C541.441 82.251 541.039 82.1968 540.741 82.0964C540.234 81.9257 539.955 81.6009 539.9 81.5373C539.802 81.4256 539.745 81.332 539.726 81.3005C539.702 81.2603 539.689 81.2339 539.687 81.2304C539.684 81.2246 539.696 81.248 539.723 81.3156C539.748 81.379 539.781 81.4643 539.82 81.5746C539.982 82.0259 540.214 82.751 540.512 83.7468C541.104 85.7259 541.923 88.6537 542.911 92.3187C544.886 99.6429 547.52 109.856 550.336 121.189L552.277 120.707L554.218 120.224C551.398 108.875 548.757 98.6346 546.773 91.2775C545.783 87.6019 544.952 84.6321 544.344 82.5997C544.041 81.5898 543.785 80.7807 543.585 80.2246C543.491 79.9611 543.385 79.6848 543.274 79.4599C543.235 79.3805 543.116 79.1394 542.914 78.9079C542.838 78.821 542.541 78.4819 542.018 78.3058C541.712 78.2028 541.303 78.1482 540.854 78.2679C540.407 78.387 540.084 78.635 539.875 78.8654L541.359 80.2066ZM529.835 120.194L531.769 120.704C533.87 112.731 536.602 102.909 538.881 95.0008C540.021 91.0462 541.045 87.5787 541.819 85.0647C542.206 83.8055 542.526 82.7989 542.765 82.0942C542.885 81.7391 542.978 81.481 543.044 81.3131C543.059 81.2727 543.072 81.2414 543.082 81.2179C543.087 81.2063 543.091 81.1976 543.093 81.1914C543.096 81.1851 543.097 81.1825 543.097 81.183C543.097 81.1833 543.094 81.1887 543.09 81.1981C543.085 81.2072 543.076 81.2242 543.063 81.2469C543.051 81.2675 542.978 81.3988 542.842 81.5487L541.359 80.2066L539.876 78.8645C539.631 79.1354 539.496 79.4407 539.477 79.4813C539.42 79.6024 539.366 79.7335 539.318 79.8575C539.219 80.1098 539.104 80.4349 538.976 80.811C538.72 81.5689 538.386 82.6175 537.995 83.8885C537.212 86.4351 536.181 89.9282 535.038 93.8931C532.752 101.824 530.011 111.677 527.901 119.685L529.835 120.194ZM528.019 126.973L529.949 127.496C530.593 125.12 531.285 122.543 531.769 120.704L529.835 120.194L527.901 119.685C527.42 121.511 526.731 124.078 526.088 126.449L528.019 126.973ZM527.002 130.694L528.93 131.227C529.223 130.168 529.578 128.864 529.949 127.496L528.019 126.973L526.088 126.45C525.719 127.814 525.365 129.111 525.074 130.162L527.002 130.694ZM521.421 150.944L523.349 151.476L528.93 131.226L527.002 130.694L525.074 130.163L519.493 150.413L521.421 150.944ZM515.335 172.945L517.262 173.483C518.338 169.629 521.076 159.725 523.349 151.476L521.421 150.944L519.493 150.413C517.22 158.663 514.483 168.561 513.409 172.407L515.335 172.945ZM507.447 201.944L509.38 202.46C512.369 191.256 514.984 181.645 517.262 173.482L515.335 172.945L513.409 172.407C511.126 180.589 508.507 190.215 505.515 201.429L507.447 201.944ZM504.438 210.839L505.868 212.237C506.155 211.944 506.343 211.591 506.434 211.414C506.555 211.18 506.676 210.91 506.794 210.627C507.031 210.056 507.298 209.325 507.578 208.498C508.139 206.838 508.784 204.695 509.38 202.46L507.447 201.944L505.515 201.429C504.937 203.595 504.317 205.653 503.788 207.216C503.523 208.001 503.288 208.638 503.099 209.094C503.004 209.323 502.931 209.481 502.881 209.577C502.801 209.731 502.842 209.61 503.009 209.44L504.438 210.839ZM479.529 212.229L479.57 214.228C486.196 214.092 492.327 213.867 496.871 213.613C499.14 213.487 501.033 213.352 502.4 213.215C503.079 213.148 503.662 213.076 504.109 213C504.328 212.962 504.559 212.916 504.77 212.857C504.874 212.827 505.014 212.783 505.163 212.718C505.271 212.67 505.58 212.531 505.867 212.238L504.438 210.839L503.009 209.439C503.266 209.177 503.524 209.068 503.561 209.053C503.603 209.034 503.635 209.022 503.652 209.017C503.669 209.011 503.679 209.008 503.679 209.008C503.68 209.008 503.674 209.009 503.662 209.012C503.65 209.015 503.634 209.019 503.612 209.024C503.568 209.033 503.509 209.044 503.435 209.057C503.125 209.11 502.65 209.171 502.003 209.235C500.721 209.363 498.895 209.494 496.648 209.619C492.163 209.87 486.08 210.094 479.488 210.229L479.529 212.229ZM454.889 211.14L453.021 211.855C453.202 212.328 453.503 212.785 453.972 213.164C454.409 213.517 454.907 213.733 455.393 213.879C456.324 214.16 457.609 214.298 459.334 214.374C462.845 214.529 468.948 214.447 479.57 214.228L479.529 212.229L479.488 210.229C468.809 210.449 462.861 210.526 459.511 210.378C457.806 210.302 456.959 210.174 456.547 210.049C456.362 209.994 456.387 209.973 456.484 210.052C456.614 210.157 456.71 210.303 456.756 210.424L454.889 211.14ZM474.67 135.944L472.744 135.405C464.732 164.016 459.638 182.454 456.619 193.93C455.111 199.664 454.113 203.686 453.528 206.38C453.236 207.723 453.039 208.774 452.933 209.559C452.881 209.95 452.846 210.316 452.84 210.64C452.835 210.899 452.839 211.381 453.022 211.858L454.889 211.14L456.755 210.422C456.866 210.711 456.836 210.888 456.839 210.713C456.841 210.603 456.856 210.406 456.898 210.091C456.982 209.465 457.153 208.536 457.437 207.229C458.003 204.625 458.982 200.672 460.488 194.948C463.497 183.508 468.583 165.099 476.596 136.484L474.67 135.944ZM480.843 113.835L478.916 113.3C477.529 118.296 475.234 126.515 472.744 135.405L474.67 135.944L476.596 136.484C479.086 127.593 481.382 119.37 482.77 114.37L480.843 113.835ZM482.189 108.944L480.253 108.443C480.158 108.81 479.678 110.555 478.916 113.3L480.843 113.835L482.77 114.37C483.525 111.65 484.019 109.856 484.126 109.445L482.189 108.944ZM490.581 78.4444L488.653 77.9118C484.326 93.5723 480.544 107.322 480.253 108.442L482.189 108.944L484.125 109.446C484.405 108.367 488.173 94.6671 492.508 78.9771L490.581 78.4444ZM500.937 40.8335L499.008 40.3045C496.341 50.0292 492.152 65.2444 488.653 77.9119L490.581 78.4444L492.508 78.9769C496.008 66.3076 500.198 51.09 502.866 41.3625L500.937 40.8335ZM789.451 7.44436L789.42 5.44461L757.92 5.94461L757.951 7.94436L757.983 9.9441L789.483 9.4441L789.451 7.44436ZM822.08 7.94436L823.407 6.44738C822.991 6.07955 822.507 5.94564 822.36 5.90405C822.12 5.83631 821.859 5.78687 821.608 5.74797C821.098 5.66914 820.44 5.60601 819.665 5.55345C818.106 5.44764 815.912 5.37451 813.137 5.33204C807.578 5.24697 799.578 5.2836 789.42 5.44461L789.451 7.44436L789.483 9.4441C799.627 9.28333 807.578 9.24745 813.076 9.33157C815.829 9.3737 817.94 9.44559 819.395 9.54427C820.127 9.59397 820.653 9.64795 820.996 9.701C821.171 9.72803 821.254 9.74821 821.274 9.75377C821.386 9.78547 821.078 9.72853 820.754 9.44133L822.08 7.94436ZM824.886 23.4444L826.873 23.2146C826.408 19.195 825.856 15.4142 825.338 12.554C825.08 11.1283 824.825 9.90208 824.588 8.97879C824.47 8.52148 824.347 8.09845 824.217 7.74757C824.153 7.57335 824.073 7.38014 823.976 7.19386C823.899 7.04707 823.722 6.72694 823.407 6.4474L822.08 7.94436L820.754 9.44131C820.618 9.32094 820.536 9.21073 820.5 9.1588C820.46 9.10127 820.438 9.06038 820.432 9.04914C820.422 9.02939 820.434 9.05025 820.465 9.13499C820.527 9.30205 820.612 9.57653 820.714 9.97513C820.917 10.7636 821.152 11.8827 821.402 13.2665C821.902 16.025 822.442 19.7191 822.9 23.6741L824.886 23.4444ZM829.457 61.4444L831.442 61.1963C829.652 46.8788 828.539 37.629 826.873 23.2147L824.886 23.4444L822.9 23.674C824.567 38.1005 825.681 47.3626 827.473 61.6926L829.457 61.4444ZM831.454 77.9444L833.441 77.7105C832.857 72.7572 831.959 65.327 831.442 61.1961L829.457 61.4444L827.473 61.6927C827.988 65.8118 828.885 73.2322 829.468 78.1784L831.454 77.9444ZM845.477 175.945L847.452 175.625C842.718 146.38 835.97 99.2271 833.441 77.7109L831.454 77.9444L829.468 78.178C832.006 99.7682 838.763 146.981 843.503 176.264L845.477 175.945ZM850.127 206.194L852.114 205.966C851.775 203.021 849.673 189.353 847.452 175.625L845.477 175.945L843.503 176.264C845.732 190.036 847.815 203.593 848.14 206.423L850.127 206.194ZM850.731 211.445L852.718 211.216L852.114 205.966L850.127 206.194L848.14 206.423L848.744 211.673L850.731 211.445ZM796.991 209.195L795.039 209.627L795.537 211.877L797.489 211.445L799.442 211.012L798.944 208.762L796.991 209.195ZM794.899 192.444L792.911 192.663C793.35 196.659 793.806 200.547 794.187 203.594C794.559 206.577 794.876 208.893 795.039 209.628L796.991 209.195L798.944 208.761C798.833 208.26 798.542 206.188 798.156 203.098C797.778 200.074 797.325 196.205 796.887 192.226L794.899 192.444ZM792.628 177.444L791.438 179.052C791.144 178.834 790.996 178.593 790.958 178.531C790.901 178.439 790.871 178.369 790.863 178.35C790.847 178.311 790.852 178.315 790.875 178.395C790.918 178.545 790.98 178.802 791.057 179.181C791.209 179.929 791.393 181.01 791.597 182.357C792.003 185.042 792.475 188.695 792.911 192.663L794.899 192.444L796.887 192.226C796.447 188.219 795.968 184.51 795.552 181.758C795.344 180.386 795.148 179.229 794.977 178.385C794.892 177.968 794.806 177.59 794.718 177.287C794.676 177.141 794.62 176.964 794.547 176.791C794.511 176.706 794.454 176.582 794.372 176.447C794.308 176.343 794.135 176.072 793.818 175.837L792.628 177.444ZM756.834 177.253L756.852 179.253C766.502 179.168 775.348 179.147 781.824 179.182C785.063 179.199 787.701 179.231 789.547 179.274C790.473 179.296 791.183 179.321 791.665 179.347C791.91 179.361 792.07 179.373 792.159 179.383C792.208 179.389 792.201 179.389 792.163 179.382C792.146 179.379 792.085 179.366 792.003 179.341C791.967 179.33 791.712 179.255 791.44 179.053L792.628 177.444L793.817 175.836C793.532 175.626 793.258 175.542 793.196 175.523C793.086 175.489 792.991 175.468 792.932 175.457C792.81 175.433 792.689 175.417 792.595 175.407C792.398 175.385 792.154 175.368 791.886 175.353C791.34 175.323 790.58 175.298 789.642 175.275C787.759 175.231 785.093 175.199 781.845 175.182C775.345 175.147 766.48 175.168 756.817 175.253L756.834 177.253ZM721.717 177.562L721.735 179.562L756.852 179.253L756.834 177.253L756.817 175.253L721.7 175.562L721.717 177.562ZM678.386 211.445V213.445H705.535V211.445V209.445H678.386V211.445ZM651.894 209.695L650.022 208.991C649.921 209.259 649.688 209.916 649.862 210.684C650.071 211.603 650.716 212.147 651.28 212.437C651.791 212.701 652.388 212.844 652.966 212.941C653.576 213.044 654.327 213.12 655.237 213.18C658.842 213.418 665.707 213.445 678.386 213.445V211.445V209.445C665.626 209.445 658.937 209.416 655.501 209.189C654.651 209.133 654.05 209.067 653.629 208.997C653.179 208.921 653.069 208.86 653.113 208.882C653.209 208.932 653.626 209.198 653.763 209.798C653.864 210.245 653.713 210.54 653.766 210.398L651.894 209.695ZM704.954 108.444L703.188 107.507C692.196 128.211 679.108 153.052 668.678 172.954C663.464 182.905 658.912 191.623 655.62 197.974C653.974 201.149 652.641 203.735 651.696 205.588C651.224 206.514 650.846 207.262 650.574 207.811C650.33 208.304 650.111 208.754 650.022 208.991L651.894 209.695L653.767 210.398C653.755 210.43 653.769 210.39 653.854 210.212C653.926 210.06 654.027 209.852 654.158 209.587C654.42 209.058 654.79 208.326 655.259 207.405C656.198 205.563 657.526 202.987 659.171 199.815C662.46 193.472 667.008 184.76 672.221 174.811C682.648 154.914 695.733 130.08 706.721 109.382L704.954 108.444ZM719.471 80.9444L717.7 80.016C714.243 86.6122 707.711 98.984 703.188 107.507L704.954 108.444L706.721 109.382C711.247 100.855 717.782 88.4768 721.243 81.8728L719.471 80.9444ZM728.169 64.5455L726.415 63.5848C725.08 66.0221 721.158 73.4179 717.7 80.016L719.471 80.9444L721.243 81.8729C724.703 75.2717 728.609 67.9068 729.923 65.5061L728.169 64.5455ZM739.476 43.0455L737.702 42.1223C732.805 51.5341 727.728 61.1877 726.415 63.5849L728.169 64.5455L729.923 65.5061C731.261 63.0635 736.36 53.3674 741.25 43.9687L739.476 43.0455ZM753.163 16.9444L751.398 16.0048C748.759 20.9633 742.597 32.715 737.702 42.1223L739.476 43.0455L741.25 43.9686C746.144 34.5644 752.299 22.8258 754.929 17.8839L753.163 16.9444ZM757.951 7.94436L756.186 7.005L751.398 16.005L753.163 16.9444L754.929 17.8837L759.717 8.88371L757.951 7.94436ZM776.534 66.6945L774.7 65.8977C773.705 68.1886 769.298 77.484 764.894 86.5724L766.694 87.4444L768.494 88.3165C772.884 79.2554 777.333 69.8752 778.369 67.4912L776.534 66.6945ZM779.165 62.4454L779.17 60.4454C778.447 60.4438 777.941 60.8037 777.77 60.9318C777.537 61.1067 777.346 61.3058 777.205 61.4678C776.917 61.7993 776.632 62.2133 776.368 62.6405C775.829 63.5104 775.236 64.6622 774.7 65.8979L776.534 66.6945L778.369 67.491C778.847 66.3898 779.354 65.4166 779.769 64.746C779.981 64.4029 780.137 64.1927 780.224 64.0928C780.27 64.039 780.251 64.0706 780.17 64.1319C780.15 64.1464 779.776 64.4468 779.161 64.4454L779.165 62.4454ZM783.272 94.1954L785.261 93.9874C784.347 85.2454 783.427 77.291 782.68 71.5156C782.307 68.6311 781.975 66.274 781.707 64.6292C781.574 63.8129 781.451 63.1392 781.342 62.6546C781.29 62.4229 781.228 62.1726 781.152 61.9548C781.119 61.8592 781.05 61.6703 780.933 61.4711C780.877 61.3758 780.755 61.1831 780.549 60.9916C780.356 60.8125 779.884 60.4454 779.165 60.4454V62.4454V64.4454C778.46 64.4454 778.002 64.0852 777.824 63.92C777.633 63.7424 777.527 63.5705 777.487 63.5027C777.438 63.4198 777.409 63.3544 777.396 63.325C777.382 63.292 777.375 63.2703 777.373 63.2654C777.37 63.2572 777.376 63.2739 777.39 63.3265C777.403 63.376 777.42 63.4438 777.44 63.5323C777.522 63.8973 777.629 64.4762 777.759 65.2723C778.016 66.8522 778.342 69.1584 778.713 72.0287C779.454 77.7629 780.371 85.6835 781.283 94.4034L783.272 94.1954ZM787.375 130.676L789.348 130.35C788.931 127.823 787.093 111.49 785.261 93.9873L783.272 94.1954L781.283 94.4035C783.106 111.825 784.959 128.324 785.402 131.002L787.375 130.676ZM787.789 134.589L789.789 134.544C789.764 133.433 789.606 131.913 789.349 130.351L787.375 130.676L785.402 131.001C785.639 132.442 785.77 133.767 785.79 134.635L787.789 134.589ZM787.637 135.926L789.054 137.337C789.454 136.936 789.593 136.474 789.638 136.315C789.701 136.092 789.734 135.875 789.753 135.702C789.791 135.348 789.798 134.946 789.789 134.544L787.789 134.589L785.79 134.635C785.797 134.957 785.788 135.162 785.776 135.266C785.77 135.321 785.769 135.295 785.79 135.221C785.802 135.181 785.828 135.098 785.879 134.992C785.927 134.893 786.029 134.706 786.22 134.514L787.637 135.926ZM743.451 135.951H741.451C741.451 136.696 741.844 137.187 742.071 137.406C742.295 137.621 742.517 137.736 742.62 137.786C742.837 137.889 743.035 137.938 743.119 137.958C743.32 138.005 743.537 138.034 743.716 138.054C744.097 138.097 744.615 138.133 745.22 138.164C746.444 138.227 748.172 138.278 750.223 138.319C754.332 138.399 759.808 138.438 765.297 138.434C770.787 138.431 776.303 138.387 780.495 138.301C782.588 138.259 784.365 138.206 785.649 138.141C786.286 138.11 786.828 138.074 787.236 138.032C787.434 138.012 787.642 137.986 787.827 137.95C787.917 137.933 788.049 137.905 788.192 137.859C788.236 137.845 788.673 137.719 789.051 137.341L787.637 135.926L786.224 134.511C786.438 134.297 786.648 134.188 786.732 134.146C786.835 134.096 786.918 134.067 786.959 134.054C787.04 134.027 787.09 134.019 787.077 134.021C787.06 134.025 786.985 134.037 786.828 134.053C786.525 134.084 786.065 134.116 785.449 134.146C784.225 134.208 782.494 134.26 780.413 134.302C776.258 134.387 770.769 134.431 765.295 134.434C759.821 134.438 754.374 134.399 750.302 134.319C748.262 134.279 746.585 134.229 745.426 134.169C744.84 134.139 744.421 134.108 744.165 134.079C744.024 134.064 743.997 134.055 744.033 134.064C744.035 134.064 744.17 134.093 744.346 134.177C744.428 134.216 744.635 134.321 744.848 134.527C745.064 134.735 745.451 135.216 745.451 135.951H743.451ZM766.694 87.4444L764.894 86.5725C754.754 107.503 748.941 119.519 745.663 126.359C744.026 129.777 743.015 131.915 742.412 133.231C742.113 133.886 741.904 134.359 741.767 134.694C741.699 134.859 741.638 135.019 741.59 135.164C741.57 135.224 741.451 135.56 741.451 135.951H743.451H745.451C745.451 136.284 745.356 136.518 745.389 136.415C745.395 136.399 745.416 136.338 745.469 136.208C745.574 135.952 745.755 135.54 746.049 134.896C746.636 133.616 747.633 131.506 749.271 128.088C752.544 121.257 758.352 109.251 768.494 88.3164L766.694 87.4444ZM445.78 36.4688L446.003 38.4562C451.288 37.862 456.661 37.5567 462.106 37.5567V35.5567V33.5567C456.512 33.5567 450.989 33.8704 445.556 34.4813L445.78 36.4688ZM445.78 36.4688L445.584 34.4784C436.83 35.3406 429.414 36.8516 420.788 39.4649L421.368 41.379L421.948 43.2931C430.338 40.7511 437.498 39.2942 445.976 38.4591L445.78 36.4688ZM797.489 211.445V213.445H850.731V211.445V209.445H797.489V211.445ZM705.535 211.445L707.34 212.306L723.522 178.424L721.717 177.562L719.913 176.7L703.731 210.583L705.535 211.445ZM503.313 32.1504L502.778 34.0775C546.879 46.321 582.663 77.8528 600.804 119.009L602.634 118.203L604.465 117.396C585.846 75.1581 549.121 42.7923 503.848 30.2233L503.313 32.1504ZM425.998 3.55859L424.051 3.09999L422.606 9.23575L424.553 9.69436L426.499 10.153L427.945 4.0172L425.998 3.55859ZM602.634 118.203L604.574 117.715C603.925 115.134 603.199 112.228 602.385 108.961L600.444 109.444L598.503 109.928C599.318 113.196 600.044 116.106 600.695 118.691L602.634 118.203ZM600.444 109.444L602.385 108.961C598.174 92.0488 593.601 73.7791 590.027 59.5688L588.088 60.0566L586.148 60.5444C589.721 74.7515 594.293 93.0182 598.503 109.927L600.444 109.444ZM588.088 60.0566L589.984 59.4194C587.36 51.6144 585.627 44.2702 583.738 37.409C581.87 30.62 579.851 24.3144 576.665 18.9709C573.443 13.5673 569.039 9.16172 562.468 6.13969C555.948 3.14077 547.413 1.55859 535.998 1.55859V3.55859V5.55859C547.083 5.55859 554.986 7.10117 560.797 9.77375C566.557 12.4232 570.378 16.2359 573.23 21.0193C576.118 25.8628 578.022 31.7129 579.882 38.4704C581.722 45.1558 583.522 52.7489 586.192 60.6938L588.088 60.0566ZM535.998 3.55859V1.55859H425.998V3.55859V5.55859H535.998V3.55859Z" fill="#0E4D4C" fill-opacity="0.36" mask="url(#path-1-outside-1_2089_599)"/>
</g>
<g filter="url(#filter1_d_2089_599)">
<mask id="path-3-outside-2_2089_599" maskUnits="userSpaceOnUse" x="905.731" y="3.5" width="1026" height="215" fill="black">
<rect fill="white" x="905.731" y="3.5" width="1026" height="215"/>
<path d="M908.293 211.5L948.613 9.89999H1005.64L974.533 166.284H1070.72L1061.51 211.5H908.293ZM1160.97 87.948H1254.57L1246.22 130.572H1152.62L1160.97 87.948ZM1149.16 167.436H1254.86L1245.64 211.5H1084.07L1124.39 9.89999H1282.22L1273.29 53.964H1171.63L1149.16 167.436ZM1253.38 211.5L1382.69 9.89999H1438.85L1487.53 211.5H1430.79L1394.79 36.972H1417.25L1313.57 211.5H1253.38ZM1309.83 172.332L1332.87 130.284H1431.37L1437.7 172.332H1309.83ZM1503.98 211.5L1544.3 9.89999H1631.85C1652.97 9.89999 1671.02 13.356 1686 20.268C1701.16 27.18 1712.78 36.972 1720.84 49.644C1728.91 62.124 1732.94 77.1 1732.94 94.572C1732.94 112.428 1729.87 128.556 1723.72 142.956C1717.58 157.164 1708.94 169.452 1697.8 179.82C1686.67 189.996 1673.42 197.868 1658.06 203.436C1642.7 208.812 1625.71 211.5 1607.08 211.5H1503.98ZM1570.22 165.996H1608.81C1623.21 165.996 1635.31 163.02 1645.1 157.068C1654.89 151.116 1662.38 143.052 1667.56 132.876C1672.75 122.508 1675.34 110.892 1675.34 98.028C1675.34 89.004 1673.42 81.324 1669.58 74.988C1665.93 68.652 1660.36 63.852 1652.88 60.588C1645.58 57.132 1636.46 55.404 1625.52 55.404H1592.11L1570.22 165.996ZM1817.09 215.532C1805.57 215.532 1794.53 214.572 1783.97 212.652C1773.41 210.924 1763.81 208.428 1755.17 205.164C1746.53 201.708 1739.13 197.964 1732.99 193.932L1755.45 151.308C1762.37 155.532 1769.47 159.18 1776.77 162.252C1784.25 165.132 1791.84 167.34 1799.52 168.876C1807.2 170.412 1814.88 171.18 1822.56 171.18C1829.85 171.18 1836.09 170.508 1841.28 169.164C1846.46 167.628 1850.4 165.516 1853.09 162.828C1855.77 160.14 1857.12 156.972 1857.12 153.324C1857.12 149.292 1855.29 146.124 1851.65 143.82C1848.19 141.324 1843.58 139.212 1837.82 137.484C1832.06 135.756 1825.63 134.028 1818.53 132.3C1811.61 130.38 1804.61 128.172 1797.5 125.676C1790.59 122.988 1784.25 119.724 1778.49 115.884C1772.73 111.852 1768.03 106.764 1764.38 100.62C1760.93 94.476 1759.2 86.892 1759.2 77.868C1759.2 63.276 1763.13 50.604 1771.01 39.852C1778.88 29.1 1790.01 20.748 1804.41 14.796C1819.01 8.84399 1836.19 5.86799 1855.97 5.86799C1870.37 5.86799 1883.81 7.40399 1896.29 10.476C1908.77 13.356 1919.52 17.58 1928.54 23.148L1907.81 65.484C1899.93 60.492 1891.2 56.748 1881.6 54.252C1872.19 51.564 1862.49 50.22 1852.51 50.22C1844.83 50.22 1838.21 51.084 1832.64 52.812C1827.26 54.54 1823.13 56.94 1820.25 60.012C1817.57 62.892 1816.22 66.156 1816.22 69.804C1816.22 73.644 1817.95 76.812 1821.41 79.308C1824.86 81.804 1829.47 83.916 1835.23 85.644C1841.18 87.372 1847.61 89.196 1854.53 91.116C1861.63 92.844 1868.64 94.956 1875.55 97.452C1882.46 99.756 1888.89 102.924 1894.85 106.956C1900.8 110.796 1905.5 115.692 1908.96 121.644C1912.41 127.596 1914.14 134.988 1914.14 143.82C1914.14 158.22 1910.21 170.796 1902.33 181.548C1894.46 192.3 1883.23 200.652 1868.64 206.604C1854.05 212.556 1836.86 215.532 1817.09 215.532Z"/>
</mask>
<path d="M908.293 211.5L948.613 9.89999H1005.64L974.533 166.284H1070.72L1061.51 211.5H908.293ZM1160.97 87.948H1254.57L1246.22 130.572H1152.62L1160.97 87.948ZM1149.16 167.436H1254.86L1245.64 211.5H1084.07L1124.39 9.89999H1282.22L1273.29 53.964H1171.63L1149.16 167.436ZM1253.38 211.5L1382.69 9.89999H1438.85L1487.53 211.5H1430.79L1394.79 36.972H1417.25L1313.57 211.5H1253.38ZM1309.83 172.332L1332.87 130.284H1431.37L1437.7 172.332H1309.83ZM1503.98 211.5L1544.3 9.89999H1631.85C1652.97 9.89999 1671.02 13.356 1686 20.268C1701.16 27.18 1712.78 36.972 1720.84 49.644C1728.91 62.124 1732.94 77.1 1732.94 94.572C1732.94 112.428 1729.87 128.556 1723.72 142.956C1717.58 157.164 1708.94 169.452 1697.8 179.82C1686.67 189.996 1673.42 197.868 1658.06 203.436C1642.7 208.812 1625.71 211.5 1607.08 211.5H1503.98ZM1570.22 165.996H1608.81C1623.21 165.996 1635.31 163.02 1645.1 157.068C1654.89 151.116 1662.38 143.052 1667.56 132.876C1672.75 122.508 1675.34 110.892 1675.34 98.028C1675.34 89.004 1673.42 81.324 1669.58 74.988C1665.93 68.652 1660.36 63.852 1652.88 60.588C1645.58 57.132 1636.46 55.404 1625.52 55.404H1592.11L1570.22 165.996ZM1817.09 215.532C1805.57 215.532 1794.53 214.572 1783.97 212.652C1773.41 210.924 1763.81 208.428 1755.17 205.164C1746.53 201.708 1739.13 197.964 1732.99 193.932L1755.45 151.308C1762.37 155.532 1769.47 159.18 1776.77 162.252C1784.25 165.132 1791.84 167.34 1799.52 168.876C1807.2 170.412 1814.88 171.18 1822.56 171.18C1829.85 171.18 1836.09 170.508 1841.28 169.164C1846.46 167.628 1850.4 165.516 1853.09 162.828C1855.77 160.14 1857.12 156.972 1857.12 153.324C1857.12 149.292 1855.29 146.124 1851.65 143.82C1848.19 141.324 1843.58 139.212 1837.82 137.484C1832.06 135.756 1825.63 134.028 1818.53 132.3C1811.61 130.38 1804.61 128.172 1797.5 125.676C1790.59 122.988 1784.25 119.724 1778.49 115.884C1772.73 111.852 1768.03 106.764 1764.38 100.62C1760.93 94.476 1759.2 86.892 1759.2 77.868C1759.2 63.276 1763.13 50.604 1771.01 39.852C1778.88 29.1 1790.01 20.748 1804.41 14.796C1819.01 8.84399 1836.19 5.86799 1855.97 5.86799C1870.37 5.86799 1883.81 7.40399 1896.29 10.476C1908.77 13.356 1919.52 17.58 1928.54 23.148L1907.81 65.484C1899.93 60.492 1891.2 56.748 1881.6 54.252C1872.19 51.564 1862.49 50.22 1852.51 50.22C1844.83 50.22 1838.21 51.084 1832.64 52.812C1827.26 54.54 1823.13 56.94 1820.25 60.012C1817.57 62.892 1816.22 66.156 1816.22 69.804C1816.22 73.644 1817.95 76.812 1821.41 79.308C1824.86 81.804 1829.47 83.916 1835.23 85.644C1841.18 87.372 1847.61 89.196 1854.53 91.116C1861.63 92.844 1868.64 94.956 1875.55 97.452C1882.46 99.756 1888.89 102.924 1894.85 106.956C1900.8 110.796 1905.5 115.692 1908.96 121.644C1912.41 127.596 1914.14 134.988 1914.14 143.82C1914.14 158.22 1910.21 170.796 1902.33 181.548C1894.46 192.3 1883.23 200.652 1868.64 206.604C1854.05 212.556 1836.86 215.532 1817.09 215.532Z" fill="url(#paint8_linear_2089_599)" shape-rendering="crispEdges"/>
<path d="M908.293 211.5L906.331 211.108L905.853 213.5H908.293V211.5ZM948.613 9.89999V7.89999H946.973L946.651 9.50775L948.613 9.89999ZM1005.64 9.89999L1007.6 10.2901L1008.07 7.89999H1005.64V9.89999ZM974.533 166.284L972.571 165.894L972.096 168.284H974.533V166.284ZM1070.72 166.284L1072.68 166.683L1073.17 164.284H1070.72V166.284ZM1061.51 211.5V213.5H1063.14L1063.47 211.899L1061.51 211.5ZM908.293 211.5L910.254 211.892L950.574 10.2922L948.613 9.89999L946.651 9.50775L906.331 211.108L908.293 211.5ZM948.613 9.89999V11.9H1005.64V9.89999V7.89999H948.613V9.89999ZM1005.64 9.89999L1003.67 9.50984L972.571 165.894L974.533 166.284L976.494 166.674L1007.6 10.2901L1005.64 9.89999ZM974.533 166.284V168.284H1070.72V166.284V164.284H974.533V166.284ZM1070.72 166.284L1068.76 165.885L1059.55 211.101L1061.51 211.5L1063.47 211.899L1072.68 166.683L1070.72 166.284ZM1061.51 211.5V209.5H908.293V211.5V213.5H1061.51V211.5ZM1160.97 87.948V85.948H1159.32L1159.01 87.5634L1160.97 87.948ZM1254.57 87.948L1256.53 88.3326L1257 85.948H1254.57V87.948ZM1246.22 130.572V132.572H1247.86L1248.18 130.957L1246.22 130.572ZM1152.62 130.572L1150.66 130.187L1150.19 132.572H1152.62V130.572ZM1149.16 167.436L1147.2 167.048L1146.73 169.436H1149.16V167.436ZM1254.86 167.436L1256.82 167.845L1257.32 165.436H1254.86V167.436ZM1245.64 211.5V213.5H1247.27L1247.6 211.909L1245.64 211.5ZM1084.07 211.5L1082.11 211.108L1081.63 213.5H1084.07V211.5ZM1124.39 9.89999V7.89999H1122.75L1122.43 9.50775L1124.39 9.89999ZM1282.22 9.89999L1284.18 10.2971L1284.66 7.89999H1282.22V9.89999ZM1273.29 53.964V55.964H1274.93L1275.25 54.3611L1273.29 53.964ZM1171.63 53.964V51.964H1169.98L1169.66 53.5756L1171.63 53.964ZM1160.97 87.948V89.948H1254.57V87.948V85.948H1160.97V87.948ZM1254.57 87.948L1252.61 87.5634L1244.26 130.187L1246.22 130.572L1248.18 130.957L1256.53 88.3326L1254.57 87.948ZM1246.22 130.572V128.572H1152.62V130.572V132.572H1246.22V130.572ZM1152.62 130.572L1154.58 130.957L1162.93 88.3326L1160.97 87.948L1159.01 87.5634L1150.66 130.187L1152.62 130.572ZM1149.16 167.436V169.436H1254.86V167.436V165.436H1149.16V167.436ZM1254.86 167.436L1252.9 167.027L1243.68 211.091L1245.64 211.5L1247.6 211.909L1256.82 167.845L1254.86 167.436ZM1245.64 211.5V209.5H1084.07V211.5V213.5H1245.64V211.5ZM1084.07 211.5L1086.03 211.892L1126.35 10.2922L1124.39 9.89999L1122.43 9.50775L1082.11 211.108L1084.07 211.5ZM1124.39 9.89999V11.9H1282.22V9.89999V7.89999H1124.39V9.89999ZM1282.22 9.89999L1280.26 9.50283L1271.33 53.5668L1273.29 53.964L1275.25 54.3611L1284.18 10.2971L1282.22 9.89999ZM1273.29 53.964V51.964H1171.63V53.964V55.964H1273.29V53.964ZM1171.63 53.964L1169.66 53.5756L1147.2 167.048L1149.16 167.436L1151.12 167.824L1173.59 54.3524L1171.63 53.964ZM1253.38 211.5L1251.7 210.42L1249.72 213.5H1253.38V211.5ZM1382.69 9.89999V7.89999H1381.6L1381.01 8.82017L1382.69 9.89999ZM1438.85 9.89999L1440.8 9.43061L1440.43 7.89999H1438.85V9.89999ZM1487.53 211.5V213.5H1490.07L1489.47 211.031L1487.53 211.5ZM1430.79 211.5L1428.83 211.904L1429.16 213.5H1430.79V211.5ZM1394.79 36.972V34.972H1392.34L1392.83 37.376L1394.79 36.972ZM1417.25 36.972L1418.97 37.9935L1420.77 34.972H1417.25V36.972ZM1313.57 211.5V213.5H1314.71L1315.29 212.521L1313.57 211.5ZM1309.83 172.332L1308.08 171.371L1306.45 174.332H1309.83V172.332ZM1332.87 130.284V128.284H1331.69L1331.12 129.323L1332.87 130.284ZM1431.37 130.284L1433.34 129.986L1433.09 128.284H1431.37V130.284ZM1437.7 172.332V174.332H1440.03L1439.68 172.034L1437.7 172.332ZM1253.38 211.5L1255.07 212.58L1384.38 10.9798L1382.69 9.89999L1381.01 8.82017L1251.7 210.42L1253.38 211.5ZM1382.69 9.89999V11.9H1438.85V9.89999V7.89999H1382.69V9.89999ZM1438.85 9.89999L1436.91 10.3694L1485.58 211.969L1487.53 211.5L1489.47 211.031L1440.8 9.43061L1438.85 9.89999ZM1487.53 211.5V209.5H1430.79V211.5V213.5H1487.53V211.5ZM1430.79 211.5L1432.75 211.096L1396.75 36.568L1394.79 36.972L1392.83 37.376L1428.83 211.904L1430.79 211.5ZM1394.79 36.972V38.972H1417.25V36.972V34.972H1394.79V36.972ZM1417.25 36.972L1415.53 35.9505L1311.85 210.479L1313.57 211.5L1315.29 212.521L1418.97 37.9935L1417.25 36.972ZM1313.57 211.5V209.5H1253.38V211.5V213.5H1313.57V211.5ZM1309.83 172.332L1311.58 173.293L1334.62 131.245L1332.87 130.284L1331.12 129.323L1308.08 171.371L1309.83 172.332ZM1332.87 130.284V132.284H1431.37V130.284V128.284H1332.87V130.284ZM1431.37 130.284L1429.39 130.582L1435.72 172.63L1437.7 172.332L1439.68 172.034L1433.34 129.986L1431.37 130.284ZM1437.7 172.332V170.332H1309.83V172.332V174.332H1437.7V172.332ZM1503.98 211.5L1502.02 211.108L1501.54 213.5H1503.98V211.5ZM1544.3 9.89999V7.89999H1542.66L1542.34 9.50775L1544.3 9.89999ZM1686 20.268L1685.16 22.0839L1685.17 22.0879L1686 20.268ZM1720.84 49.644L1719.16 50.7178L1719.16 50.7294L1720.84 49.644ZM1723.72 142.956L1725.56 143.75L1725.56 143.741L1723.72 142.956ZM1697.8 179.82L1699.15 181.296L1699.16 181.29L1699.17 181.284L1697.8 179.82ZM1658.06 203.436L1658.72 205.324L1658.73 205.32L1658.74 205.316L1658.06 203.436ZM1570.22 165.996L1568.26 165.608L1567.79 167.996H1570.22V165.996ZM1645.1 157.068L1646.14 158.777L1646.14 158.777L1645.1 157.068ZM1667.56 132.876L1669.35 133.784L1669.35 133.777L1669.35 133.77L1667.56 132.876ZM1669.58 74.988L1667.85 75.9859L1667.86 76.0054L1667.87 76.0246L1669.58 74.988ZM1652.88 60.588L1652.02 62.3955L1652.05 62.4089L1652.08 62.4214L1652.88 60.588ZM1592.11 55.404V53.404H1590.47L1590.15 55.0157L1592.11 55.404ZM1503.98 211.5L1505.94 211.892L1546.26 10.2922L1544.3 9.89999L1542.34 9.50775L1502.02 211.108L1503.98 211.5ZM1544.3 9.89999V11.9H1631.85V9.89999V7.89999H1544.3V9.89999ZM1631.85 9.89999V11.9C1652.76 11.9 1670.51 15.3222 1685.16 22.0839L1686 20.268L1686.83 18.4521C1671.53 11.3898 1653.18 7.89999 1631.85 7.89999V9.89999ZM1686 20.268L1685.17 22.0879C1700.02 28.8577 1711.32 38.4075 1719.16 50.7177L1720.84 49.644L1722.53 48.5702C1714.24 35.5365 1702.31 25.5023 1686.83 18.448L1686 20.268ZM1720.84 49.644L1719.16 50.7294C1726.98 62.8326 1730.94 77.4161 1730.94 94.572H1732.94H1734.94C1734.94 76.7839 1730.83 61.4154 1722.52 48.5586L1720.84 49.644ZM1732.94 94.572H1730.94C1730.94 112.196 1727.91 128.052 1721.88 142.171L1723.72 142.956L1725.56 143.741C1731.83 129.06 1734.94 112.66 1734.94 94.572H1732.94ZM1723.72 142.956L1721.89 142.162C1715.85 156.121 1707.37 168.18 1696.44 178.356L1697.8 179.82L1699.17 181.284C1710.51 170.724 1719.31 158.207 1725.56 143.75L1723.72 142.956ZM1697.8 179.82L1696.45 178.344C1685.53 188.328 1672.51 196.07 1657.38 201.556L1658.06 203.436L1658.74 205.316C1674.33 199.666 1687.81 191.664 1699.15 181.296L1697.8 179.82ZM1658.06 203.436L1657.4 201.548C1642.28 206.84 1625.52 209.5 1607.08 209.5V211.5V213.5C1625.9 213.5 1643.12 210.784 1658.72 205.324L1658.06 203.436ZM1607.08 211.5V209.5H1503.98V211.5V213.5H1607.08V211.5ZM1570.22 165.996V167.996H1608.81V165.996V163.996H1570.22V165.996ZM1608.81 165.996V167.996C1623.49 167.996 1635.96 164.963 1646.14 158.777L1645.1 157.068L1644.06 155.359C1634.65 161.077 1622.94 163.996 1608.81 163.996V165.996ZM1645.1 157.068L1646.14 158.777C1656.25 152.633 1663.99 144.292 1669.35 133.784L1667.56 132.876L1665.78 131.968C1660.77 141.812 1653.54 149.599 1644.06 155.359L1645.1 157.068ZM1667.56 132.876L1669.35 133.77C1674.69 123.095 1677.34 111.168 1677.34 98.028H1675.34H1673.34C1673.34 110.616 1670.81 121.921 1665.78 131.982L1667.56 132.876ZM1675.34 98.028H1677.34C1677.34 88.7182 1675.36 80.6618 1671.29 73.9514L1669.58 74.988L1667.87 76.0246C1671.48 81.9862 1673.34 89.2898 1673.34 98.028H1675.34ZM1669.58 74.988L1671.31 73.9901C1667.43 67.2395 1661.51 62.1688 1653.68 58.7546L1652.88 60.588L1652.08 62.4214C1659.22 65.5352 1664.44 70.0645 1667.85 75.9859L1669.58 74.988ZM1652.88 60.588L1653.73 58.7805C1646.09 55.161 1636.66 53.404 1625.52 53.404V55.404V57.404C1636.26 57.404 1645.07 59.1029 1652.02 62.3955L1652.88 60.588ZM1625.52 55.404V53.404H1592.11V55.404V57.404H1625.52V55.404ZM1592.11 55.404L1590.15 55.0157L1568.26 165.608L1570.22 165.996L1572.18 166.384L1594.07 55.7923L1592.11 55.404ZM1783.97 212.652L1784.32 210.684L1784.31 210.681L1784.29 210.678L1783.97 212.652ZM1755.17 205.164L1754.42 207.021L1754.44 207.028L1754.46 207.035L1755.17 205.164ZM1732.99 193.932L1731.22 193L1730.37 194.607L1731.89 195.604L1732.99 193.932ZM1755.45 151.308L1756.5 149.601L1754.68 148.49L1753.68 150.376L1755.45 151.308ZM1776.77 162.252L1775.99 164.095L1776.02 164.107L1776.05 164.119L1776.77 162.252ZM1799.52 168.876L1799.13 170.837L1799.13 170.837L1799.52 168.876ZM1841.28 169.164L1841.78 171.1L1841.81 171.091L1841.85 171.082L1841.28 169.164ZM1853.09 162.828L1851.67 161.414L1851.67 161.414L1853.09 162.828ZM1851.65 143.82L1850.47 145.441L1850.53 145.478L1850.58 145.511L1851.65 143.82ZM1837.82 137.484L1837.25 139.4L1837.25 139.4L1837.82 137.484ZM1818.53 132.3L1817.99 134.227L1818.02 134.236L1818.05 134.243L1818.53 132.3ZM1797.5 125.676L1796.78 127.54L1796.81 127.552L1796.84 127.563L1797.5 125.676ZM1778.49 115.884L1777.35 117.522L1777.37 117.535L1777.38 117.548L1778.49 115.884ZM1764.38 100.62L1762.64 101.601L1762.65 101.621L1762.66 101.641L1764.38 100.62ZM1804.41 14.796L1803.66 12.9441L1803.65 12.9477L1804.41 14.796ZM1896.29 10.476L1895.81 12.418L1895.82 12.4215L1895.84 12.4248L1896.29 10.476ZM1928.54 23.148L1930.34 24.0277L1931.14 22.3985L1929.59 21.4459L1928.54 23.148ZM1907.81 65.484L1906.73 67.173L1908.62 68.3685L1909.6 66.3637L1907.81 65.484ZM1881.6 54.252L1881.05 56.175L1881.07 56.1816L1881.09 56.1876L1881.6 54.252ZM1832.64 52.812L1832.04 50.9019L1832.04 50.9049L1832.03 50.9079L1832.64 52.812ZM1820.25 60.012L1818.79 58.6441L1818.79 58.6474L1820.25 60.012ZM1821.41 79.308L1822.58 77.6866L1822.58 77.6866L1821.41 79.308ZM1835.23 85.644L1834.65 87.5597L1834.66 87.5622L1834.67 87.5647L1835.23 85.644ZM1854.53 91.116L1853.99 93.043L1854.02 93.0517L1854.05 93.0593L1854.53 91.116ZM1875.55 97.452L1874.87 99.3331L1874.89 99.3415L1874.92 99.3494L1875.55 97.452ZM1894.85 106.956L1893.72 108.612L1893.74 108.624L1893.76 108.637L1894.85 106.956ZM1908.96 121.644L1907.23 122.648L1907.23 122.648L1908.96 121.644ZM1902.33 181.548L1903.95 182.729L1903.95 182.729L1902.33 181.548ZM1868.64 206.604L1869.39 208.456L1869.39 208.456L1868.64 206.604ZM1817.09 215.532V213.532C1805.68 213.532 1794.76 212.581 1784.32 210.684L1783.97 212.652L1783.61 214.62C1794.29 216.563 1805.45 217.532 1817.09 217.532V215.532ZM1783.97 212.652L1784.29 210.678C1773.84 208.968 1764.37 206.503 1755.87 203.293L1755.17 205.164L1754.46 207.035C1763.24 210.353 1772.97 212.88 1783.64 214.626L1783.97 212.652ZM1755.17 205.164L1755.91 203.307C1747.36 199.888 1740.09 196.202 1734.09 192.26L1732.99 193.932L1731.89 195.604C1738.17 199.726 1745.69 203.528 1754.42 207.021L1755.17 205.164ZM1732.99 193.932L1734.76 194.864L1757.22 152.24L1755.45 151.308L1753.68 150.376L1731.22 193L1732.99 193.932ZM1755.45 151.308L1754.41 153.015C1761.41 157.29 1768.6 160.984 1775.99 164.095L1776.77 162.252L1777.54 160.409C1770.34 157.376 1763.33 153.774 1756.5 149.601L1755.45 151.308ZM1776.77 162.252L1776.05 164.119C1783.64 167.038 1791.33 169.278 1799.13 170.837L1799.52 168.876L1799.91 166.915C1792.34 165.402 1784.87 163.226 1777.48 160.385L1776.77 162.252ZM1799.52 168.876L1799.13 170.837C1806.93 172.398 1814.74 173.18 1822.56 173.18V171.18V169.18C1815.01 169.18 1807.46 168.426 1799.91 166.915L1799.52 168.876ZM1822.56 171.18V173.18C1829.97 173.18 1836.38 172.499 1841.78 171.1L1841.28 169.164L1840.78 167.228C1835.8 168.517 1829.74 169.18 1822.56 169.18V171.18ZM1841.28 169.164L1841.85 171.082C1847.22 169.488 1851.5 167.244 1854.5 164.242L1853.09 162.828L1851.67 161.414C1849.3 163.788 1845.7 165.768 1840.71 167.246L1841.28 169.164ZM1853.09 162.828L1854.5 164.242C1857.55 161.197 1859.12 157.527 1859.12 153.324H1857.12H1855.12C1855.12 156.417 1854 159.083 1851.67 161.414L1853.09 162.828ZM1857.12 153.324H1859.12C1859.12 148.55 1856.89 144.769 1852.71 142.129L1851.65 143.82L1850.58 145.511C1853.69 147.479 1855.12 150.034 1855.12 153.324H1857.12ZM1851.65 143.82L1852.82 142.199C1849.12 139.53 1844.29 137.336 1838.4 135.568L1837.82 137.484L1837.25 139.4C1842.87 141.088 1847.26 143.118 1850.47 145.441L1851.65 143.82ZM1837.82 137.484L1838.4 135.568C1832.6 133.828 1826.13 132.091 1819 130.357L1818.53 132.3L1818.05 134.243C1825.13 135.965 1831.53 137.684 1837.25 139.4L1837.82 137.484ZM1818.53 132.3L1819.06 130.373C1812.19 128.465 1805.23 126.271 1798.16 123.789L1797.5 125.676L1796.84 127.563C1803.98 130.073 1811.03 132.295 1817.99 134.227L1818.53 132.3ZM1797.5 125.676L1798.23 123.812C1791.44 121.173 1785.23 117.974 1779.6 114.22L1778.49 115.884L1777.38 117.548C1783.27 121.474 1789.74 124.803 1796.78 127.54L1797.5 125.676ZM1778.49 115.884L1779.64 114.246C1774.12 110.379 1769.61 105.503 1766.1 99.5989L1764.38 100.62L1762.66 101.641C1766.45 108.025 1771.35 113.325 1777.35 117.522L1778.49 115.884ZM1764.38 100.62L1766.12 99.6395C1762.88 93.8674 1761.2 86.6426 1761.2 77.868H1759.2H1757.2C1757.2 87.1414 1758.97 95.0846 1762.64 101.601L1764.38 100.62ZM1759.2 77.868H1761.2C1761.2 63.6583 1765.02 51.4099 1772.62 41.0335L1771.01 39.852L1769.39 38.6705C1761.24 49.7981 1757.2 62.8937 1757.2 77.868H1759.2ZM1771.01 39.852L1772.62 41.0335C1780.24 30.6245 1791.06 22.4802 1805.18 16.6443L1804.41 14.796L1803.65 12.9477C1788.97 19.0157 1777.51 27.5755 1769.39 38.6705L1771.01 39.852ZM1804.41 14.796L1805.17 16.6479C1819.47 10.8151 1836.38 7.86799 1855.97 7.86799V5.86799V3.86799C1835.99 3.86799 1818.54 6.87284 1803.66 12.9441L1804.41 14.796ZM1855.97 5.86799V7.86799C1870.22 7.86799 1883.5 9.38882 1895.81 12.418L1896.29 10.476L1896.76 8.53397C1884.11 5.41916 1870.51 3.86799 1855.97 3.86799V5.86799ZM1896.29 10.476L1895.84 12.4248C1908.15 15.2656 1918.69 19.4174 1927.49 24.8501L1928.54 23.148L1929.59 21.4459C1920.35 15.7426 1909.38 11.4463 1896.74 8.52721L1896.29 10.476ZM1928.54 23.148L1926.75 22.2683L1906.01 64.6043L1907.81 65.484L1909.6 66.3637L1930.34 24.0277L1928.54 23.148ZM1907.81 65.484L1908.88 63.795C1900.82 58.6849 1891.89 54.8612 1882.1 52.3164L1881.6 54.252L1881.09 56.1876C1890.51 58.6348 1899.05 62.2991 1906.73 67.173L1907.81 65.484ZM1881.6 54.252L1882.15 52.329C1872.56 49.5889 1862.68 48.22 1852.51 48.22V50.22V52.22C1862.31 52.22 1871.82 53.5391 1881.05 56.175L1881.6 54.252ZM1852.51 50.22V48.22C1844.69 48.22 1837.85 49.0988 1832.04 50.9019L1832.64 52.812L1833.23 54.7221C1838.56 53.0692 1844.97 52.22 1852.51 52.22V50.22ZM1832.64 52.812L1832.03 50.9079C1826.43 52.7058 1821.97 55.2541 1818.79 58.6441L1820.25 60.012L1821.71 61.3799C1824.29 58.6258 1828.09 56.3742 1833.25 54.7161L1832.64 52.812ZM1820.25 60.012L1818.79 58.6474C1815.79 61.8654 1814.22 65.6068 1814.22 69.804H1816.22H1818.22C1818.22 66.7051 1819.34 63.9186 1821.72 61.3766L1820.25 60.012ZM1816.22 69.804H1814.22C1814.22 74.364 1816.32 78.1054 1820.23 80.9294L1821.41 79.308L1822.58 77.6866C1819.57 75.5186 1818.22 72.9239 1818.22 69.804H1816.22ZM1821.41 79.308L1820.23 80.9294C1823.93 83.5976 1828.76 85.7917 1834.65 87.5597L1835.23 85.644L1835.8 83.7283C1830.18 82.0403 1825.79 80.0104 1822.58 77.6866L1821.41 79.308ZM1835.23 85.644L1834.67 87.5647C1840.63 89.2951 1847.07 91.1213 1853.99 93.043L1854.53 91.116L1855.06 89.189C1848.16 87.2707 1841.73 85.4488 1835.79 83.7233L1835.23 85.644ZM1854.53 91.116L1854.05 93.0593C1861.09 94.7702 1868.03 96.8614 1874.87 99.3331L1875.55 97.452L1876.23 95.5709C1869.25 93.0506 1862.17 90.9178 1855 89.1727L1854.53 91.116ZM1875.55 97.452L1874.92 99.3494C1881.66 101.596 1887.93 104.684 1893.72 108.612L1894.85 106.956L1895.97 105.3C1889.86 101.164 1883.27 97.9156 1876.18 95.5546L1875.55 97.452ZM1894.85 106.956L1893.76 108.637C1899.46 112.31 1903.94 116.978 1907.23 122.648L1908.96 121.644L1910.69 120.64C1907.07 114.406 1902.14 109.282 1895.93 105.275L1894.85 106.956ZM1908.96 121.644L1907.23 122.648C1910.46 128.22 1912.14 135.243 1912.14 143.82H1914.14H1916.14C1916.14 134.733 1914.36 126.972 1910.69 120.64L1908.96 121.644ZM1914.14 143.82H1912.14C1912.14 157.831 1908.32 169.985 1900.72 180.367L1902.33 181.548L1903.95 182.729C1912.09 171.607 1916.14 158.609 1916.14 143.82H1914.14ZM1902.33 181.548L1900.72 180.367C1893.1 190.769 1882.19 198.914 1867.88 204.752L1868.64 206.604L1869.39 208.456C1884.26 202.39 1895.82 193.831 1903.95 182.729L1902.33 181.548ZM1868.64 206.604L1867.88 204.752C1853.58 210.585 1836.67 213.532 1817.09 213.532V215.532V217.532C1837.06 217.532 1854.51 214.527 1869.39 208.456L1868.64 206.604Z" fill="#0E4D4C" fill-opacity="0.36" mask="url(#path-3-outside-2_2089_599)"/>
</g>
<defs>
<filter id="filter0_d_2089_599" x="0.987305" y="0.556641" width="855.987" height="226.887" filterUnits="userSpaceOnUse" color-interpolation-filters="sRGB">
<feFlood flood-opacity="0" result="BackgroundImageFix"/>
<feColorMatrix in="SourceAlpha" type="matrix" values="0 0 0 0 0 0 0 0 0 0 0 0 0 0 0 0 0 0 127 0" result="hardAlpha"/>
<feOffset dy="5"/>
<feGaussianBlur stdDeviation="2"/>
<feComposite in2="hardAlpha" operator="out"/>
<feColorMatrix type="matrix" values="0 0 0 0 0 0 0 0 0 0 0 0 0 0 0 0 0 0 0.25 0"/>
<feBlend mode="normal" in2="BackgroundImageFix" result="effect1_dropShadow_2089_599"/>
<feBlend mode="normal" in="SourceGraphic" in2="effect1_dropShadow_2089_599" result="shape"/>
</filter>
<filter id="filter1_d_2089_599" x="901.853" y="3.86816" width="1033.28" height="222.664" filterUnits="userSpaceOnUse" color-interpolation-filters="sRGB">
<feFlood flood-opacity="0" result="BackgroundImageFix"/>
<feColorMatrix in="SourceAlpha" type="matrix" values="0 0 0 0 0 0 0 0 0 0 0 0 0 0 0 0 0 0 127 0" result="hardAlpha"/>
<feOffset dy="5"/>
<feGaussianBlur stdDeviation="2"/>
<feComposite in2="hardAlpha" operator="out"/>
<feColorMatrix type="matrix" values="0 0 0 0 0 0 0 0 0 0 0 0 0 0 0 0 0 0 0.25 0"/>
<feBlend mode="normal" in2="BackgroundImageFix" result="effect1_dropShadow_2089_599"/>
<feBlend mode="normal" in="SourceGraphic" in2="effect1_dropShadow_2089_599" result="shape"/>
</filter>
<linearGradient id="paint0_linear_2089_599" x1="6.99805" y1="109.503" x2="850.73" y2="109.503" gradientUnits="userSpaceOnUse">
<stop stop-color="#013C39"/>
<stop offset="0.687618" stop-color="#01605B"/>
<stop offset="1" stop-color="#027E77"/>
</linearGradient>
<linearGradient id="paint1_linear_2089_599" x1="6.99805" y1="109.503" x2="850.73" y2="109.503" gradientUnits="userSpaceOnUse">
<stop stop-color="#013C39"/>
<stop offset="0.687618" stop-color="#01605B"/>
<stop offset="1" stop-color="#027E77"/>
</linearGradient>
<linearGradient id="paint2_linear_2089_599" x1="6.99805" y1="109.503" x2="850.73" y2="109.503" gradientUnits="userSpaceOnUse">
<stop stop-color="#013C39"/>
<stop offset="0.687618" stop-color="#01605B"/>
<stop offset="1" stop-color="#027E77"/>
</linearGradient>
<linearGradient id="paint3_linear_2089_599" x1="6.99805" y1="109.503" x2="850.73" y2="109.503" gradientUnits="userSpaceOnUse">
<stop stop-color="#013C39"/>
<stop offset="0.687618" stop-color="#01605B"/>
<stop offset="1" stop-color="#027E77"/>
</linearGradient>
<linearGradient id="paint4_linear_2089_599" x1="6.99805" y1="109.503" x2="850.73" y2="109.503" gradientUnits="userSpaceOnUse">
<stop stop-color="#013C39"/>
<stop offset="0.687618" stop-color="#01605B"/>
<stop offset="1" stop-color="#027E77"/>
</linearGradient>
<linearGradient id="paint5_linear_2089_599" x1="6.99805" y1="109.503" x2="850.73" y2="109.503" gradientUnits="userSpaceOnUse">
<stop stop-color="#013C39"/>
<stop offset="0.687618" stop-color="#01605B"/>
<stop offset="1" stop-color="#027E77"/>
</linearGradient>
<linearGradient id="paint6_linear_2089_599" x1="6.99805" y1="109.503" x2="850.73" y2="109.503" gradientUnits="userSpaceOnUse">
<stop stop-color="#013C39"/>
<stop offset="0.687618" stop-color="#01605B"/>
<stop offset="1" stop-color="#027E77"/>
</linearGradient>
<linearGradient id="paint7_linear_2089_599" x1="6.99805" y1="109.503" x2="850.73" y2="109.503" gradientUnits="userSpaceOnUse">
<stop stop-color="#013C39"/>
<stop offset="0.687618" stop-color="#01605B"/>
<stop offset="1" stop-color="#027E77"/>
</linearGradient>
<linearGradient id="paint8_linear_2089_599" x1="899.729" y1="109.504" x2="1927.73" y2="109.504" gradientUnits="userSpaceOnUse">
<stop stop-color="#027E77"/>
<stop offset="0.312382" stop-color="#01605B"/>
<stop offset="1" stop-color="#013C39"/>
</linearGradient>
</defs>
</svg>
